<svg xmlns="http://www.w3.org/2000/svg" xmlns:xlink="http://www.w3.org/1999/xlink" width="168.708" height="190.003" viewBox="0 0 168.708 190.003">
  <defs>
    <filter id="Path_324" x="63.923" y="0" width="83.781" height="33.499" filterUnits="userSpaceOnUse">
      <feOffset dy="3" input="SourceAlpha"/>
      <feGaussianBlur stdDeviation="3" result="blur"/>
      <feFlood flood-opacity="0.161"/>
      <feComposite operator="in" in2="blur"/>
      <feComposite in="SourceGraphic"/>
    </filter>
  </defs>
  <g id="Group_7" data-name="Group 7" transform="translate(-1227.146 -888.049)">
    <path id="Path_318" data-name="Path 318" d="M548.645,460.2h-34.69l-29.308-53.728c-4.572-1.486-12.465-12.859-18.489-24.085-1.464-2.725-2.815-5.45-3.986-8.017a.476.476,0,0,1,0-.113c-.372-.8-.721-1.588-1.047-2.342a64.08,64.08,0,0,1-2.331-6.283c-.124-.428-.236-.845-.349-1.239-.169-.687-.293-1.317-.383-1.892-.293-1.948,0-3.187.9-3.378a2.871,2.871,0,0,1,1.058-.09,3.952,3.952,0,0,1,2.094.912,6.553,6.553,0,0,1,1.036.991,18.775,18.775,0,0,1,2.252,3.378c.3.563.6,1.126.878,1.711s.529,1.126.777,1.621c1.385,3,2.432,5.506,3.232,5.022.608-.383-.259-2.905-1.61-6.182-.473-1.126-.991-2.342-1.543-3.6l-.439-1.013-.619-1.43c-.5-1.126-.98-2.252-1.43-3.378-.608-1.486-1.126-2.894-1.565-4.144a10.717,10.717,0,0,1-.8-3.817,1,1,0,0,1,.383-.856c1.126-.687,3.569,2.421,6.092,6.171.135.191.27.394.394.6,3.378,5.067,6.812,10.956,7.679,10.247,1.543-1.261-10.663-22.858-6.373-24.322s16.158,24.5,18.4,23.466-9.425-23.714-5.461-25.594,23.849,32.553,23.849,32.553a55.967,55.967,0,0,0,.394-11.947c-.608-4.954,5.2-7.2,5.2-7.2a161.154,161.154,0,0,1,3.581,18.275c1.419,10.28-4.752,20.426-4.752,20.426Z" transform="translate(847.209 617.854)" fill="#f4ad95"/>
    <path id="Path_319" data-name="Path 319" d="M473.86,372.64s11.384,6.587,24.558,3.907" transform="translate(849.213 603.634)" fill="none" stroke="#f49678" stroke-linecap="round" stroke-miterlimit="10" stroke-width="1"/>
    <path id="Path_320" data-name="Path 320" d="M480,384.9a11.654,11.654,0,0,0,6.688-4.673" transform="translate(849.987 606.612)" fill="none" stroke="#f49678" stroke-linecap="round" stroke-miterlimit="10" stroke-width="1"/>
    <path id="Path_321" data-name="Path 321" d="M479.424,368.221a15.017,15.017,0,0,1-.878,3.187,58.688,58.688,0,0,1-4.144,8.535c-.383.676-.777,1.362-1.194,2.061-7.736,13.017-20.651,29.276-26.72,30.616l-38.817,45.258h0l-17.237-13.79-3.447-3.447,32.917-47.3s-5.36-11.26-2.747-21.889a176.789,176.789,0,0,1,5.731-18.748s5.844,2.984,4.662,8.1a59.1,59.1,0,0,0-.878,12.555s24.569-33.881,28.51-31.472-10.742,24.885-8.5,26.2,17.475-24.547,21.811-22.52-10.8,23.263-9.312,24.772c.631.631,3.232-2.567,6.227-6.294,1.194-1.475,2.455-3.051,3.671-4.5.878-1.047,1.745-2.038,2.545-2.871a13.873,13.873,0,0,1,2.826-2.432,1.385,1.385,0,0,1,1.284-.214l.113.056a.788.788,0,0,1,.282.54,7.443,7.443,0,0,1-.867,3.5c-.417,1-.968,2.139-1.588,3.378-.405.788-.844,1.61-1.295,2.443l-.236.428-1.959,3.558c-.709,1.25-1.408,2.488-2.049,3.648-2.061,3.738-3.536,6.756-2.883,7.229s2.151-1.914,3.93-4.887c.552-.912,1.126-1.88,1.757-2.815a19.581,19.581,0,0,1,3.142-3.84,7.192,7.192,0,0,1,1.284-.98,2.468,2.468,0,0,1,.338-.18,3.536,3.536,0,0,1,2.646-.327l.259.079C479.334,366.093,479.581,366.926,479.424,368.221Z" transform="translate(840.159 618.236)" fill="#f4b29c"/>
    <path id="Path_322" data-name="Path 322" d="M434.17,370s6.835,17.723,18.647,18.354" transform="translate(844.213 604.171)" fill="none" stroke="#f49d81" stroke-linecap="round" stroke-miterlimit="10" stroke-width="1"/>
    <path id="Path_323" data-name="Path 323" d="M427.91,381.22c4.5,3.3,10.652,6.261,16.485,4.5" transform="translate(843.424 607.043)" fill="none" stroke="#f49d81" stroke-linecap="round" stroke-miterlimit="10" stroke-width="1"/>
    <g transform="matrix(1, 0, 0, 1, 1227.15, 888.05)" filter="url(#Path_324)">
      <path id="Path_324-2" data-name="Path 324" d="M461.312,329H453.43v-3a12.487,12.487,0,0,1,12.859-12.5l52.922.383-.056,7.882-52.922-.394a4.673,4.673,0,0,0-3.446,1.306,4.605,4.605,0,0,0-1.4,3.322Z" transform="translate(-380.51 -307.51)" fill="#010a43"/>
    </g>
    <path id="Path_325" data-name="Path 325" d="M477.323,370.812a4.313,4.313,0,0,0-4.3-4.11,4.1,4.1,0,0,0-1.441.27l-8.1-39.7h-8.377l-7.646,41.763a4.3,4.3,0,0,0-6.61,3.637,4.211,4.211,0,0,0,.563,2.083,7.724,7.724,0,1,0,11.947,9.267,4.234,4.234,0,0,0,2.635.923,4.313,4.313,0,0,0,3.592-1.926,7.724,7.724,0,0,0,14.75-.18,6.352,6.352,0,0,0,1.464.18,6.193,6.193,0,0,0,1.52-12.206Z" transform="translate(844.782 582.278)" fill="#96daff"/>
  </g>
</svg>
