<svg xmlns="http://www.w3.org/2000/svg" xmlns:xlink="http://www.w3.org/1999/xlink" width="915.264" height="819.068" viewBox="0 0 915.264 819.068">
  <defs>
    <filter id="Tracé_861" x="386.617" y="0" width="374.869" height="102.085" filterUnits="userSpaceOnUse">
      <feOffset dy="3" input="SourceAlpha"/>
      <feGaussianBlur stdDeviation="3" result="blur"/>
      <feFlood flood-opacity="0.161"/>
      <feComposite operator="in" in2="blur"/>
      <feComposite in="SourceGraphic"/>
    </filter>
  </defs>
  <g id="Groupe_17" data-name="Groupe 17" transform="translate(-1815.146 -2392.181)">
    <path id="Tracé_855" data-name="Tracé 855" d="M949.971,997.686h-188.2l-159-291.48c-24.8-8.063-67.623-69.761-100.3-130.664-7.941-14.783-15.272-29.566-21.625-43.494a2.61,2.61,0,0,1,0-.611c-2.016-4.337-3.91-8.613-5.681-12.706a347.7,347.7,0,0,1-12.645-34.086c-.672-2.322-1.283-4.582-1.893-6.72-.916-3.726-1.588-7.147-2.077-10.263-1.588-10.568,0-17.287,4.887-18.326a15.576,15.576,0,0,1,5.742-.489,21.441,21.441,0,0,1,11.362,4.948,35.551,35.551,0,0,1,5.62,5.376A101.865,101.865,0,0,1,498.375,477.5c1.649,3.054,3.237,6.108,4.765,9.285s2.871,6.109,4.215,8.8c7.513,16.249,13.195,29.871,17.531,27.244,3.3-2.077-1.4-15.76-8.735-33.537-2.566-6.109-5.376-12.706-8.369-19.548l-2.382-5.5-3.36-7.758c-2.688-6.109-5.314-12.217-7.758-18.326-3.3-8.064-6.109-15.7-8.491-22.48a58.142,58.142,0,0,1-4.337-20.708,5.434,5.434,0,0,1,2.077-4.643c6.108-3.726,19.365,13.134,33.048,33.476.733,1.039,1.466,2.138,2.138,3.238,18.326,27.489,36.957,59.437,41.661,55.589,8.369-6.842-57.849-124.006-34.575-131.947s87.659,132.924,99.816,127.3-51.13-128.648-29.627-138.85,129.382,176.6,129.382,176.6a303.61,303.61,0,0,0,2.139-64.813c-3.3-26.878,28.222-39.034,28.222-39.034a874.254,874.254,0,0,1,19.425,99.144c7.7,55.772-25.779,110.811-25.779,110.811Z" transform="translate(1780.438 2213.563)" fill="#f4ad95"/>
    <path id="Tracé_856" data-name="Tracé 856" d="M473.86,372.64s61.759,35.736,133.23,21.2" transform="translate(1861.703 2386.777)" fill="none" stroke="#f49678" stroke-linecap="round" stroke-miterlimit="10" stroke-width="1"/>
    <path id="Tracé_857" data-name="Tracé 857" d="M480,405.581a63.223,63.223,0,0,0,36.286-25.351" transform="translate(1893.073 2425.551)" fill="none" stroke="#f49678" stroke-linecap="round" stroke-miterlimit="10" stroke-width="1"/>
    <path id="Tracé_858" data-name="Tracé 858" d="M888.468,485.308A81.483,81.483,0,0,1,883.7,502.6a318.4,318.4,0,0,1-22.48,46.3c-2.077,3.665-4.215,7.391-6.475,11.179C812.781,630.694,742.715,718.9,709.789,726.173L499.2,971.7h0l-93.512-74.811-18.7-18.7,178.576-256.6s-29.077-61.087-14.905-118.752a959.107,959.107,0,0,1,31.094-101.709s31.7,16.188,25.29,43.922a320.631,320.631,0,0,0-4.765,68.111s133.291-183.81,154.672-170.737-58.277,135-46.12,142.148S805.634,351.406,829.153,362.4s-58.582,126.205-50.519,134.391c3.421,3.421,17.532-13.928,33.781-34.147,6.475-8,13.317-16.554,19.914-24.435,4.765-5.681,9.469-11.057,13.806-15.577a75.252,75.252,0,0,1,15.333-13.195,7.514,7.514,0,0,1,6.964-1.16l.611.305a4.276,4.276,0,0,1,1.527,2.932,40.381,40.381,0,0,1-4.7,19c-2.26,5.437-5.254,11.606-8.614,18.326-2.2,4.276-4.581,8.735-7.025,13.256l-1.283,2.321-10.63,19.3c-3.849,6.781-7.636,13.5-11.118,19.792-11.179,20.281-19.181,36.652-15.638,39.218s11.667-10.385,21.319-26.512c2.993-4.948,6.109-10.2,9.53-15.272a106.232,106.232,0,0,1,17.043-20.831,39.011,39.011,0,0,1,6.964-5.314,13.382,13.382,0,0,1,1.833-.977,19.181,19.181,0,0,1,14.355-1.772l1.405.428C887.979,473.763,889.323,478.283,888.468,485.308Z" transform="translate(1428.159 2229.027)" fill="#f4b29c"/>
    <path id="Tracé_859" data-name="Tracé 859" d="M434.17,370s37.08,96.15,101.16,99.571" transform="translate(1658.94 2373.29)" fill="none" stroke="#f49d81" stroke-linecap="round" stroke-miterlimit="10" stroke-width="1"/>
    <path id="Tracé_860" data-name="Tracé 860" d="M427.91,381.22c24.435,17.9,57.788,33.964,89.431,24.435" transform="translate(1626.961 2430.609)" fill="none" stroke="#f49d81" stroke-linecap="round" stroke-miterlimit="10" stroke-width="1"/>
    <g transform="matrix(1, 0, 0, 1, 1815.15, 2392.18)" filter="url(#Tracé_861)">
      <path id="Tracé_861-2" data-name="Tracé 861" d="M496.191,397.591H453.43V381.341a67.745,67.745,0,0,1,69.761-67.806L810.3,315.612l-.305,42.761-287.108-2.138a25.351,25.351,0,0,0-18.693,7.086,24.984,24.984,0,0,0-7.575,18.021Z" transform="translate(-57.81 -307.51)" fill="#010a43"/>
    </g>
    <path id="Tracé_862" data-name="Tracé 862" d="M648.271,563.492a23.4,23.4,0,0,0-23.335-22.3,22.231,22.231,0,0,0-7.819,1.466L573.2,327.27H527.747L486.269,553.84a23.335,23.335,0,0,0-35.858,19.731,22.848,22.848,0,0,0,3.054,11.3,41.905,41.905,0,1,0,64.813,50.274,22.969,22.969,0,0,0,14.294,5.009,23.4,23.4,0,0,0,19.488-10.447,41.905,41.905,0,0,0,80.022-.976,34.461,34.461,0,0,0,7.942.977,33.6,33.6,0,0,0,8.247-66.218Z" transform="translate(1682.039 2154.996)" fill="#96daff"/>
  </g>
</svg>
