<svg xmlns="http://www.w3.org/2000/svg" width="121.205" height="169.267" viewBox="0 0 121.205 169.267">
  <g id="Group_6" data-name="Group 6" transform="translate(-1263.979 -687.733)">
    <path id="Path_249" data-name="Path 249" d="M521.852,140.255c-8.735-.775-16.188-6.558-24.656-8.837a31.786,31.786,0,0,0-22.562,2.435c-5.073,2.629-9.593,6.983-10.866,12.554-1.457,6.383,1.448,13.55-1.485,19.37-1.264,2.527-3.459,4.437-5.534,6.383a85.229,85.229,0,0,0-15.967,20.708,17.442,17.442,0,0,0-2.407,6.835c-.719,8.486,9.132,14,11.742,22.138,2.048,6.355-.646,13.541,1.476,19.878a20.847,20.847,0,0,0,4.2,6.844c6.457,7.444,15.3,12.526,24.72,15.367s19.371,3.514,29.194,3.127c8.588-.341,17.323-1.55,25-5.405a19.943,19.943,0,0,0,7.25-5.627c4.612-6.245,3.016-15.035,5.175-22.507,2.813-9.713,12.065-17.249,12.406-27.358.387-11.327-10.589-20.09-12.24-31.306-.553-3.8,0-7.684-.3-11.521a25.984,25.984,0,0,0-31.62-23.364" transform="translate(825.642 557.363)" fill="#f25500"/>
    <path id="Path_250" data-name="Path 250" d="M566.353,323.7a15.053,15.053,0,0,1-3.514,8.532c-2.518,2.767-6,4.547-8.44,7.425-5.156,6.06-5.23,14.629-7.776,21.833a21.214,21.214,0,0,1-6.023,9.353,34.184,34.184,0,0,1-9.547,5.682c-7.056,2.823-14.9,3.487-22.424,2.906a73.377,73.377,0,0,1-22.488-5.451c-6.568-2.767-13.836-6.383-17.59-12.7a33.669,33.669,0,0,1-3.348-9.012,78.891,78.891,0,0,0-3.127-10.3,10.839,10.839,0,0,0-3.016-4.612,23.064,23.064,0,0,0-4.28-2.435,50.717,50.717,0,0,1-4.981-2.841c2.767,3.634,6.162,7.186,7.536,11.456,2.048,6.355-.646,13.541,1.476,19.878a20.847,20.847,0,0,0,4.2,6.844c6.457,7.444,15.3,12.526,24.72,15.367s19.37,3.514,29.194,3.127c8.588-.341,17.323-1.55,25-5.405a19.941,19.941,0,0,0,7.25-5.627c4.612-6.245,3.016-15.035,5.175-22.507,2.813-9.713,12.065-17.249,12.406-27.358A17.936,17.936,0,0,0,566.353,323.7Z" transform="translate(818.425 435.62)" fill="#d94c00"/>
    <path id="Path_251" data-name="Path 251" d="M536.662,246c0,4.031-3.118,8.56-7.084,8.56s-7.3-4.529-7.3-8.56a7.195,7.195,0,1,1,14.38,0Z" transform="translate(772.783 489.238)" fill="#f2bb9d"/>
    <path id="Path_252" data-name="Path 252" d="M527.925,262.5a9.632,9.632,0,0,0,1.033-.922,6.088,6.088,0,0,0,.729-7.444c-1.384-2.435-4.012-2.9-6.531-2.315l-.507.12a7.377,7.377,0,0,0-.36,2.269C522.29,257.666,524.734,261.475,527.925,262.5Z" transform="translate(772.775 481.027)" fill="#eb9f76"/>
    <path id="Path_253" data-name="Path 253" d="M681.518,246c0,4.031-3.007,8.874-6.973,8.874s-7.379-4.843-7.379-8.874a7.195,7.195,0,1,1,14.38,0Z" transform="translate(681.546 489.238)" fill="#eb9f76"/>
    <path id="Path_254" data-name="Path 254" d="M673.159,251.451c-.074-3.053.249-7.066,3.09-8.874a4.907,4.907,0,0,1,3.782-.655A7.121,7.121,0,0,0,674.293,239a7.241,7.241,0,0,0-7.195,7.287c0,3.69,2.85,8.006,6.355,8.754A33.411,33.411,0,0,1,673.159,251.451Z" transform="translate(681.586 488.957)" fill="#f2bb9d"/>
    <path id="Path_255" data-name="Path 255" d="M602.681,347.963h0a7.628,7.628,0,0,1-7.6-7.61V324.506a7.628,7.628,0,0,1,7.6-7.61h0a7.628,7.628,0,0,1,7.61,7.61v15.847A7.628,7.628,0,0,1,602.681,347.963Z" transform="translate(726.937 439.903)" fill="#f2bb9d"/>
    <path id="Path_256" data-name="Path 256" d="M609.285,332.368c.332,0,.673.074,1.005.092v-7.979a7.628,7.628,0,0,0-7.61-7.61h0a7.628,7.628,0,0,0-7.6,7.61v1.845A31.3,31.3,0,0,0,609.285,332.368Z" transform="translate(726.937 439.919)" fill="#eb9f76"/>
    <ellipse id="Ellipse_31" data-name="Ellipse 31" cx="28.807" cy="32.967" rx="28.807" ry="32.967" transform="translate(1300.498 699.426)" fill="#f2bb9d"/>
    <path id="Path_257" data-name="Path 257" d="M586.065,218.439a18.678,18.678,0,0,1-12.12,5.073,37.644,37.644,0,0,1-17.987-3.45,26.03,26.03,0,0,1-9.51-8.329c-2.444-3.394-4.354-7.555-4.317-11.816,0-4.557,2.564-8.016,6.318-10.377,5.405-3.4,11.327-5.857,17.009-8.744a72.815,72.815,0,0,0,14.085-9.1,39.33,39.33,0,0,0,4.234-4.1c-4.464-3.588-10.442-5.673-18.024-5.673-19.813,0-28.816,14.758-28.816,32.967s6.457,32.967,28.816,32.967c18.3,0,25.5-8.754,27.838-21.086A32.654,32.654,0,0,1,586.065,218.439Z" transform="translate(763.551 537.493)" fill="#f2a57b"/>
    <path id="Path_258" data-name="Path 258" d="M677.653,194.308c.535,2.767,1.088,5.6,1.531,8.412s.683,5.534,1.2,8.3a12.508,12.508,0,0,0,1.679,5c0-1.227.065-2.472.065-3.69,0-9.639-1.992-18.448-6.309-25.348a50.938,50.938,0,0,1,1.836,7.324Z" transform="translate(676.095 521.712)" fill="#f25500"/>
    <path id="Path_259" data-name="Path 259" d="M540.184,234.035a25.605,25.605,0,0,1,.867-4.178,12.914,12.914,0,0,1-3.588.553,50.4,50.4,0,0,0-.526,7.269v1.042a3.413,3.413,0,0,0,2.371-.839C540.3,236.986,540.037,235.252,540.184,234.035Z" transform="translate(763.551 494.714)" fill="#f25500"/>
    <path id="Path_260" data-name="Path 260" d="M576.743,161.752a31.112,31.112,0,0,0-13.919-3.025c-18.125,0-28.318,12.84-31.666,30.642a110.969,110.969,0,0,0,30.7-15.626c4.889-3.533,9.86-6.927,14.463-10.986l.443-.4C576.752,162.186,576.743,161.983,576.743,161.752Z" transform="translate(767.19 539.509)" fill="#f25500"/>
    <path id="Path_261" data-name="Path 261" d="M654.07,168.606c.055.351.111.7.194,1.052a20.471,20.471,0,0,0,2.426,5.654,27.119,27.119,0,0,0,10.414,9.316c-2.315-7.02-6.457-12.757-12.72-16.253Z" transform="translate(689.79 533.43)" fill="#f25500"/>
    <path id="Path_262" data-name="Path 262" d="M586.634,269.423c.507-3.745,3.69-5.876,7.176-6.918a64.954,64.954,0,0,0,.756-9.6c-3.053,4.354-7.093,8.541-12.3,9.86-3.966,1.005-8.385-.129-12.166-1.384a9.464,9.464,0,0,0-8.412-.166,21.437,21.437,0,0,1-10.875.544,22.231,22.231,0,0,1-8.938-4.538,32.02,32.02,0,0,1-4.916-5.018,59.378,59.378,0,0,0,.683,8.947,11.456,11.456,0,0,1,5.608,2.97,6.66,6.66,0,0,1,1.845,6.272,7.167,7.167,0,0,1-2.832,3.616c4.317,6.577,11.687,10.709,23.531,10.709,12.462,0,19.776-4.059,23.909-10.552C587.75,273.343,586.265,271.913,586.634,269.423Z" transform="translate(763.535 480.643)" fill="#fff"/>
    <path id="Path_263" data-name="Path 263" d="M611.369,251.137c0,.065-.148.258-.572.47a4.391,4.391,0,0,1-1.928.48,5.147,5.147,0,0,1-1.4-.148,2.888,2.888,0,0,1-1.513-.922,1.992,1.992,0,0,1-.277-2.112,1.586,1.586,0,0,1,.987-.83,3.007,3.007,0,0,1,1.088-.065,3.885,3.885,0,0,0,.775,0,.48.48,0,0,0,.369-.194,3.155,3.155,0,0,0,.277-1.31c.111-1.033.185-1.974.249-2.767.12-1.577.2-2.564.36-2.574s.341.978.424,2.583v2.823a3.883,3.883,0,0,1-.065.839,2.187,2.187,0,0,1-.35,1.033,1.568,1.568,0,0,1-1.1.646,4.611,4.611,0,0,1-1.015,0,2.379,2.379,0,0,0-.7,0,.47.47,0,0,0-.314.258.923.923,0,0,0,.1.987,3.1,3.1,0,0,0,2.131.922A24.665,24.665,0,0,0,611.369,251.137Z" transform="translate(720.38 487.592)" fill="#e6a07a"/>
    <ellipse id="Ellipse_32" data-name="Ellipse 32" cx="1.587" cy="2.057" rx="1.587" ry="2.057" transform="translate(1315.985 731.129)" fill="#3a344d"/>
    <ellipse id="Ellipse_33" data-name="Ellipse 33" cx="1.587" cy="2.057" rx="1.587" ry="2.057" transform="translate(1339.764 731.129)" fill="#3a344d"/>
    <path id="Path_264" data-name="Path 264" d="M581.693,457.431c6.826-8.071,9.455-19.37,9.455-31.952,0-24.508-16.179-44.386-36.131-44.386s-36.14,19.878-36.14,44.386c0,12.554,2.629,23.881,9.455,31.952Z" transform="translate(774.924 399.477)" fill="#f2bb9d"/>
    <path id="Path_265" data-name="Path 265" d="M570.44,415.593c-5.931-10.543-15.044-20.856-26.372-25.569-2.638,6.651-10.792,8.458-17.221,7.545-4.87-.7-9.971-3.358-11.945-7.757-12.683,3.883-21.418,14.214-27.894,25.827-6.789,12.12-9.344,26.159-9.482,39.977a47.868,47.868,0,0,0,.4,7.379h22.221c-.074-.922-.157-1.789-.249-2.675a29.363,29.363,0,0,0,2.057,2.675h54.256c.424-.5.839-1.005,1.227-1.522-.046.507-.092,1.015-.129,1.522h22.211a49.047,49.047,0,0,0,.406-7.379C579.784,441.752,577.229,427.713,570.44,415.593Z" transform="translate(800.972 393.987)" fill="#3a344d"/>
    <path id="Path_266" data-name="Path 266" d="M538.077,486.772a47.256,47.256,0,0,1-4.234-5.23,22.892,22.892,0,0,0-4.861-4.99,13.651,13.651,0,0,0-7.822-2.168,49.917,49.917,0,0,1-9.012-.627,18.652,18.652,0,0,1-6.77-3.118,23.9,23.9,0,0,1-7.841-9.731,33.622,33.622,0,0,1-1.743-21.215,1.209,1.209,0,0,1-.461-.452,1.337,1.337,0,0,1,.47-1.8s.185-.175.249-.24.055-.074,0,0l.074-.111c.148-.221.286-.452.424-.683l.055-.074a16.778,16.778,0,0,1-3.265-3.053,81.256,81.256,0,0,0-6.282,9.685c-6.789,12.12-9.344,26.159-9.482,39.977a47.852,47.852,0,0,0,.4,7.379h22.221c-.074-.922-.157-1.789-.249-2.675A29.352,29.352,0,0,0,502,490.323h40.733l-.544-.323A26.445,26.445,0,0,1,538.077,486.772Z" transform="translate(800.941 366.612)" fill="#342f45"/>
    <path id="Path_267" data-name="Path 267" d="M499.092,423.935a62.327,62.327,0,0,1,4.787-16.6,31.583,31.583,0,0,1,9.141-12.2,1.1,1.1,0,0,1,.323-.59c.922-.849,1.891-1.725,2.823-2.592a10.221,10.221,0,0,1-1.264-2.085c-12.683,3.883-21.418,14.214-27.893,25.827-6.789,12.12-9.344,26.159-9.482,39.977a47.86,47.86,0,0,0,.4,7.379h22.138a82.629,82.629,0,0,1-2.3-17.35A115.132,115.132,0,0,1,499.092,423.935Z" transform="translate(800.972 393.955)" fill="#f2bb9d"/>
    <path id="Path_268" data-name="Path 268" d="M525.268,400.431a57.188,57.188,0,0,0-11.53,14.841c-8.3,15.376-10.359,33.206-8.763,50.428h12.093a82.633,82.633,0,0,1-2.3-17.35,115.134,115.134,0,0,1,1.3-21.667,62.325,62.325,0,0,1,4.787-16.6,31.583,31.583,0,0,1,9.141-12.2,1.1,1.1,0,0,1,.323-.59c.922-.849,1.891-1.725,2.823-2.592-.12-.157-.231-.332-.351-.5A97.293,97.293,0,0,0,525.268,400.431Z" transform="translate(783.992 391.225)" fill="#f2a57b"/>
    <path id="Path_269" data-name="Path 269" d="M678.642,415.953C672.711,405.41,663.6,395.1,652.27,390.384a10.654,10.654,0,0,1-2.933,4.142c4.206,2.223,7.1,3.874,9.058,7.324,2.887,5.064,4.261,9.75,6.069,15.284,2.029,6.208,3.3,15.607,3.883,22.091.627,7.029.2,14.214-.221,21.308-.055.922-.138,1.845-.221,2.767h19.813a49.055,49.055,0,0,0,.406-7.379C687.986,442.113,685.431,428.074,678.642,415.953Z" transform="translate(692.77 393.626)" fill="#f2bb9d"/>
    <path id="Path_270" data-name="Path 270" d="M686.338,488.586h8.818a97.751,97.751,0,0,0-.148-12.083,80.989,80.989,0,0,0-2.223-13.688,102.991,102.991,0,0,0-4.031-12.037c-2.693-6.946-5.774-14.122-10.146-20.21a106.179,106.179,0,0,1,4.317,11.871c2.029,6.208,3.3,15.607,3.883,22.092.627,7.029.2,14.214-.221,21.308C686.531,486.75,686.421,487.672,686.338,488.586Z" transform="translate(674.338 368.322)" fill="#f2a57b"/>
    <path id="Path_271" data-name="Path 271" d="M545.623,398.266c.922,3.69,7.056,2.61,9.538,1.568a1.338,1.338,0,0,1,1.937,1.485c-.849,3.09,3.09,4.566,5.719,4.87a9.842,9.842,0,0,0,5.009-.544,2.823,2.823,0,0,0,1.974-2.675c0-1.227,1.9-1.9,2.454-.664,1.494,3.321,5.645,3.8,8.837,3.127a8.367,8.367,0,0,0,4.188-1.965,1.7,1.7,0,0,0,.175-2.564,1.328,1.328,0,0,1,1.485-1.937,8.3,8.3,0,0,0,4.455.683,7.149,7.149,0,0,0,3.33-1.845,10.832,10.832,0,0,0,1.965-2.048,43.356,43.356,0,0,0-9.8-5.784c-2.638,6.651-10.792,8.458-17.221,7.545-4.87-.7-9.971-3.358-11.945-7.757a37.689,37.689,0,0,0-11.991,6.272,4.021,4.021,0,0,0-.111,2.232Z" transform="translate(758.15 394.018)" fill="#fff"/>
    <path id="Path_272" data-name="Path 272" d="M570.011,228.688c-.249-.175-.185-.812.415-1.568a5.175,5.175,0,0,1,3.21-1.762,5.23,5.23,0,0,1,3.6.655c.812.535,1.07,1.116.922,1.356s-.729.212-1.457.166a11.639,11.639,0,0,0-2.666.083,12.207,12.207,0,0,0-2.564.766C570.767,228.66,570.269,228.881,570.011,228.688Z" transform="translate(742.81 497.599)" fill="#f25500"/>
    <path id="Path_273" data-name="Path 273" d="M643.886,228.7c-.268.194-.766,0-1.43-.3a12.2,12.2,0,0,0-2.564-.766,11.715,11.715,0,0,0-2.675-.083c-.72.046-1.264.1-1.457-.166s.083-.821.922-1.356a5.479,5.479,0,0,1,6.817,1.107C644.07,227.893,644.126,228.529,643.886,228.7Z" transform="translate(701.358 497.582)" fill="#f25500"/>
  </g>
</svg>
