<svg id="Icon_material-camera-alt" data-name="Icon material-camera-alt" xmlns="http://www.w3.org/2000/svg" width="41.142" height="37.028" viewBox="0 0 41.142 37.028">
  <path id="Path_326" data-name="Path 326" d="M26.365,19.783A6.583,6.583,0,1,1,19.783,13.2,6.583,6.583,0,0,1,26.365,19.783Z" transform="translate(0.788 0.788)" fill="#fff"/>
  <path id="Path_327" data-name="Path 327" d="M17.4,3,13.635,7.114H7.114A4.126,4.126,0,0,0,3,11.228V35.914a4.126,4.126,0,0,0,4.114,4.114H40.028a4.126,4.126,0,0,0,4.114-4.114V11.228a4.126,4.126,0,0,0-4.114-4.114H33.507L29.742,3Zm6.171,30.856A10.285,10.285,0,1,1,33.856,23.571,10.289,10.289,0,0,1,23.571,33.856Z" transform="translate(-3 -3)" fill="#fff"/>
</svg>
