<svg id="Layer_1" data-name="Layer 1" xmlns="http://www.w3.org/2000/svg" viewBox="0 0 2044.29 1761.88"><defs><style>.cls-1{fill:#fea809;opacity:0.26;}.cls-1,.cls-2,.cls-9{isolation:isolate;}.cls-2{fill:#010a43;opacity:0.49;}.cls-3{fill:#fff;}.cls-4{fill:#e7b780;}.cls-5{fill:#3e2d4a;}.cls-6{fill:#34253d;}.cls-7{fill:#e5b5b7;}.cls-8{fill:#ca6e70;}.cls-9{fill:#c05c5d;opacity:0.38;}.cls-10{fill:#e7b880;}.cls-11{fill:#cb986f;}</style></defs><title>login img02</title><path id="Tracé_112" data-name="Tracé 112" class="cls-1" d="M129.43,17H2036.9V1749.6H129.43s211.3-273.71,0-866.43S129.43,17,129.43,17Z"/><path id="Tracé_2" data-name="Tracé 2" class="cls-1" d="M166.18,0H2073.65V1755.82H166.18s211.3-277.39,0-878S166.18,0,166.18,0Z"/><g id="_3378288" data-name=" 3378288"><g id="OBJECTS"><path id="Tracé_3" data-name="Tracé 3" class="cls-2" d="M1449.64,387S1180.09,261.7,968.87,350.8c-175.26,74-104.48,163.05-260.33,161.42S413.6,660.4,496.49,894.77c43.13,121.92-153.54,251.83-31.32,386.65,151.72,167.36,467.32,10.42,960.09,75.39,272.1,35.82,431.34-219.92,248.94-416.25-134.41-144.68-50.1-178.14-51.62-314.83C1621,480.74,1449.64,387,1449.64,387Z"/><path id="Tracé_4" data-name="Tracé 4" class="cls-3" d="M1093.51,397s94.43-70.2,195.14,6.25,9.7,147.89,3.51,125.76,29-23.28,50.9,11.49-3.26,191.79-178.56,166.63S1031.7,556.91,1060.58,543s6.8,58.62-39.87,12S1009.94,426,1093.51,397Z"/><path id="Tracé_5" data-name="Tracé 5" class="cls-4" d="M1156.49,624.13s.24-28.59-21.43-58.49c-20-27.54-50.42-84,6.43-119.36s91.94,16.51,97,52c4.42,31.29-18.08,91.73-12.16,116Z"/><path id="Tracé_6" data-name="Tracé 6" class="cls-3" d="M1169.49,606.82l-.57-1.64c-13.39-38.47-27.83-86.26-21.59-95.51a4.11,4.11,0,0,1,3.29-1.87,13.79,13.79,0,0,1,10.48,4.63c2.3-4.55,5.57-8.46,9.06-9.59a5.86,5.86,0,0,1,6.4,1.88l1.26,1.42a12.08,12.08,0,0,1,2.28-3.53,9.32,9.32,0,0,1,10-2.68,25.73,25.73,0,0,1,7,3.08,13.62,13.62,0,0,1,5.06-8.34c1.77-1,4.64-1.55,8.23,1.91,7,6.75,3.62,34,.29,60.38-2.68,20.34-5.19,41.37-1.74,46l-2.11,1.6c-4.16-5.36-1.67-25.13,1.2-47.93,3.08-24.51,6.56-52.3.51-58.11-2.89-2.68-4.48-1.82-5-1.52a12.25,12.25,0,0,0-4.07,7.69c5.54,4.42,8.33,10.42,7.77,14.3a5,5,0,0,1-5.36,4.42c-1.39,0-3.91-.75-5.17-5.51a30.57,30.57,0,0,1-.19-12.09,23.33,23.33,0,0,0-7.13-3.27,6.79,6.79,0,0,0-7.28,1.74,11.58,11.58,0,0,0-2.23,4.05c8.26,9.57,12.78,16.08,11,19.53-.84,1.5-2.68,2.09-5.5,1.69a10.3,10.3,0,0,1-7.85-7.61,24.23,24.23,0,0,1-.64-13l-2.3-2.68a3.08,3.08,0,0,0-3.56-1.07c-2.68.89-5.87,4.72-8,9.24a29.71,29.71,0,0,1,3.85,6.81c1.66,4.18,2.68,9.38.19,11.44-.89.75-2.47,1.34-5.12-.19s-4.42-5.36-3.89-10.39a28.45,28.45,0,0,1,1.85-7.27,11.66,11.66,0,0,0-9.16-4.58,1.4,1.4,0,0,0-1.2.73c-4.26,6.27,3.91,41.09,21.88,93.1.33.88.51,1.47.59,1.68Zm-7.61-89.22a21.93,21.93,0,0,0-1.16,5c-.29,2.67,0,6.27,2.68,7.82,1,.53,1.75.72,2,.48.75-.67.83-4-.94-8.44a29.86,29.86,0,0,0-2.62-4.85Zm17.2-5.89a20.55,20.55,0,0,0,.93,9.43c.7,2,2.39,5.36,5.71,5.87,1.77.24,2.68,0,2.68-.33C1189.07,525.56,1187.76,522,1179.08,511.71Zm19.82-3.89a26.9,26.9,0,0,0,.32,9.51c.35,1.29,1.15,3.49,2.68,3.51a2.32,2.32,0,0,0,2.66-1.93,1.1,1.1,0,0,0,0-.18c.38-2.84-1.66-7.29-5.68-10.91Z"/><path id="Tracé_7" data-name="Tracé 7" class="cls-5" d="M1147.35,607.14s81.56-14.49,82.65-11.68,10.88,47.42,7.27,51.41-79.63,13.4-82.65,11.66S1140.58,608.29,1147.35,607.14Z"/><path id="Tracé_8" data-name="Tracé 8" class="cls-5" d="M1173.34,633.45s37.14-7.69,37.81-5.36,7.45,39.25,6,42.33-36.33,6.83-37.8,5.36S1170.32,634,1173.34,633.45Z"/><rect id="Rectangle_20" data-name="Rectangle 20" class="cls-5" x="1156.97" y="399.59" width="2.68" height="23.82" transform="translate(-62.85 270.9) rotate(-12.99)"/><rect id="Rectangle_21" data-name="Rectangle 21" class="cls-5" x="1185.69" y="410.04" width="23.81" height="2.68" transform="translate(518.39 1480.08) rotate(-76.52)"/><rect id="Rectangle_22" data-name="Rectangle 22" class="cls-5" x="1122.07" y="414.3" width="2.68" height="23.82" transform="translate(56.52 978.89) rotate(-48.16)"/><rect id="Rectangle_23" data-name="Rectangle 23" class="cls-5" x="1092.49" y="435.17" width="2.68" height="23.82" transform="translate(222.04 1244.78) rotate(-64.69)"/><rect id="Rectangle_24" data-name="Rectangle 24" class="cls-5" x="1077.42" y="468.87" width="2.68" height="23.81" transform="translate(475.06 1495.87) rotate(-83.28)"/><rect id="Rectangle_25" data-name="Rectangle 25" class="cls-5" x="1077.37" y="504.85" width="2.68" height="23.82" transform="translate(490.86 1558.43) rotate(-86.16)"/><rect id="Rectangle_26" data-name="Rectangle 26" class="cls-5" x="1076.39" y="546.87" width="23.92" height="2.69" transform="translate(-77.08 192.11) rotate(-9.74)"/><rect id="Rectangle_27" data-name="Rectangle 27" class="cls-5" x="1088.6" y="577.94" width="23.83" height="2.68" transform="translate(-137.52 697.45) rotate(-33.21)"/><rect id="Rectangle_28" data-name="Rectangle 28" class="cls-5" x="1106.83" y="605.06" width="23.82" height="2.68" transform="translate(-46.18 1118.51) rotate(-52.19)"/><rect id="Rectangle_29" data-name="Rectangle 29" class="cls-5" x="1221.78" y="421.72" width="23.81" height="2.68" transform="translate(58.97 989.62) rotate(-44.68)"/><rect id="Rectangle_30" data-name="Rectangle 30" class="cls-5" x="1247.06" y="450.94" width="23.84" height="2.68" transform="translate(-45.17 750.24) rotate(-32.63)"/><rect id="Rectangle_31" data-name="Rectangle 31" class="cls-5" x="1259.72" y="487.48" width="23.82" height="2.68" transform="translate(-80.83 324.98) rotate(-14.12)"/><rect id="Rectangle_32" data-name="Rectangle 32" class="cls-5" x="1276.47" y="510.88" width="2.68" height="23.81" transform="translate(599.38 1725.21) rotate(-82.82)"/><rect id="Rectangle_33" data-name="Rectangle 33" class="cls-5" x="1270.22" y="548.52" width="2.68" height="23.82" transform="translate(208.4 1455.21) rotate(-63.87)"/><rect id="Rectangle_34" data-name="Rectangle 34" class="cls-5" x="1257.64" y="576.28" width="2.68" height="23.81" transform="translate(-70.77 991.62) rotate(-41.92)"/><rect id="Rectangle_35" data-name="Rectangle 35" class="cls-6" x="1149.16" y="620.44" width="82.32" height="2.68" transform="matrix(0.99, -0.13, 0.13, 0.99, -68.4, 153.69)"/><rect id="Rectangle_36" data-name="Rectangle 36" class="cls-6" x="1152.94" y="634.69" width="84.34" height="2.68" transform="translate(-102 248.32) rotate(-11.38)"/><path id="Tracé_9" data-name="Tracé 9" class="cls-5" d="M799.52,778.28s-5.62-64.56-61.61-75.79-87.66,52.89-120,79.79S601.59,872,625.7,888.13s9,69.65,57.66,77.69S866.05,886.76,799.52,778.28Z"/><path id="Tracé_10" data-name="Tracé 10" class="cls-7" d="M709,852.25s30.19,112.77-1.16,148.29S575.5,1023.93,594.31,1158s22.34,248.39,22.34,248.39h309s48.68-294.71-3.59-360.75S803,1033.55,807.16,981.55s-12.54-143.93-12.54-143.93Z"/><path id="Tracé_11" data-name="Tracé 11" class="cls-8" d="M807.62,950.15s-11.71,77.43-86.7,14.65c0,0-1.82-48.86-1.82-52.46s89.7,4.48,90.18,6.7S810,946.15,807.62,950.15Z"/><path id="Tracé_12" data-name="Tracé 12" class="cls-5" d="M690.51,1011.63s36.6,98.3,107.49,78.8c49.11-13.4,26.31-85.87,38.18-84.61s50.9-4.42,89.45,32.44,41.53,368.17,29.47,368.17-340.75,1.12-351,0-28.61-317.26-14.28-345.82S584.26,1028,690.51,1011.63Z"/><path id="Tracé_13" data-name="Tracé 13" class="cls-7" d="M822.92,829.24s-6.52-21.75-20-19.5-10.21,42.86,9,45.27S823.82,831.86,822.92,829.24Z"/><path id="Tracé_14" data-name="Tracé 14" class="cls-7" d="M655.07,799.55S736.72,732,775,767.62s94,168.33-6.35,188.48C694.37,971,607.41,830.42,655.07,799.55Z"/><path id="Tracé_15" data-name="Tracé 15" class="cls-8" d="M782.25,878.4a180.65,180.65,0,0,1-17.31,7.85l-1-2.46c8.81-3.59,18.75-8.28,20.71-10-1.72-2.68-14.34-13.77-26.15-23.34l1.68-2.06c28.11,22.69,27.47,25.07,27.25,26S785.17,876.79,782.25,878.4Z"/><path id="Tracé_16" data-name="Tracé 16" class="cls-5" d="M660.48,843.09s-14.23-37.67,35.2-62.13c58.52-29,83.49-11.17,102.35,28.62,12.62,26.6,14.76-13.4-24-50-45-42.51-116-19.85-137.94,10.43-27.3,37.51-16.69,106.33,18.94,123.51S659.54,859.54,660.48,843.09Z"/><path id="Tracé_17" data-name="Tracé 17" class="cls-7" d="M674.06,894.37s-11.84-19.4-24.3-13.77,1.1,44.15,20.26,41.47S675.62,896.67,674.06,894.37Z"/><ellipse id="Ellipse_1" data-name="Ellipse 1" class="cls-5" cx="726.04" cy="867.25" rx="6" ry="8.49" transform="translate(-352.69 527.24) rotate(-32.57)"/><ellipse id="Ellipse_2" data-name="Ellipse 2" class="cls-5" cx="782.01" cy="833.71" rx="6" ry="8.49" transform="translate(-310.28 496.79) rotate(-29.69)"/><path id="Tracé_18" data-name="Tracé 18" class="cls-8" d="M671.83,916l-1.15-2.41a2.68,2.68,0,0,0,1.56-2.54c.53-5.82-7.18-17.68-13.1-21.94-1.69-1.24-3-1.61-4-1.18-1.66.72-2.41,3.67-2.54,4.66l-2.68-.35c0-.56.83-5.36,4.18-6.78a6.74,6.74,0,0,1,6.67,1.45c6,4.39,14.84,17.06,14.2,24.38A5.37,5.37,0,0,1,671.83,916Z"/><circle id="Ellipse_3" data-name="Ellipse 3" class="cls-9" cx="721.54" cy="898.12" r="12.81"/><circle id="Ellipse_4" data-name="Ellipse 4" class="cls-9" cx="801.16" cy="864.58" r="12.81"/><path id="Tracé_19" data-name="Tracé 19" class="cls-5" d="M720.28,846.25c1.39,3.89-5.15,1.85-11.5,4.1s-10.1,8-11.49,4.13,2.68-8.87,9-11.15S718.91,842.42,720.28,846.25Z"/><path id="Tracé_20" data-name="Tracé 20" class="cls-5" d="M782.73,808.32c2.92,2.92-3.85,3.88-8.63,8.65s-5.7,11.55-8.62,8.65-1.42-9.13,3.34-13.93S779.81,805.42,782.73,808.32Z"/><path id="Tracé_21" data-name="Tracé 21" class="cls-5" d="M679.34,791.17s-22.69,16.66-13.66,40.19c4.71,12.24,35.71,30,6.11,54.41C671.79,885.66,619.06,826.16,679.34,791.17Z"/><path id="Tracé_22" data-name="Tracé 22" class="cls-7" d="M746.51,895s32.73,17.36,38.82-5.76"/><path id="Tracé_23" data-name="Tracé 23" class="cls-8" d="M769,902.62c-10.88,0-22.5-6.11-23.15-6.43l1.26-2.36c.19,0,18.3,9.57,29.34,4.72A13.38,13.38,0,0,0,784,888.9l2.68.7A16.06,16.06,0,0,1,777.61,901a21.1,21.1,0,0,1-8.6,1.6Z"/><path id="Tracé_24" data-name="Tracé 24" class="cls-7" d="M869.61,1005.85s124.21-6.43,174.14-116.54,33-207.66,54.93-237.7,8.17,45,8.17,45,12.24-56.82,18.32-48.22,6.11,48.22,6.11,48.22,12.86-58.94,18.14-35.2,17.07,217-50.74,333.22-180,127.21-180,127.21S870.42,1036.28,869.61,1005.85Z"/><path id="Tracé_25" data-name="Tracé 25" class="cls-7" d="M601.78,1034.7s-226.81,101.08-171.3,267c48.81,145.9,187.29,30.8,198.25,25.08s-32.15-117.51-32.15-117.51-60.06,48.92-68.93,33.65S592,1182,592,1182,590.1,1062.4,601.78,1034.7Z"/><path id="Tracé_26" data-name="Tracé 26" class="cls-7" d="M1109.37,726.33s-12.11-52.78-20.53-54.7,3.14,64.54,3.14,64.54"/><path id="Tracé_27" data-name="Tracé 27" class="cls-8" d="M1090.66,736.38c-1.71-9.91-10-59.66-4.07-65.34a2.7,2.7,0,0,1,2.55-.7c8.79,2,19.47,46.75,21.43,55.7l-2.68.59c-5-21.57-14.28-52.49-19.5-53.58-3.19,1.47-1,29.73,4.77,63Z"/><path id="Tracé_28" data-name="Tracé 28" class="cls-7" d="M703.64,1134.82s28.88,18.56,29.47,37.13"/><path id="Tracé_29" data-name="Tracé 29" class="cls-8" d="M731.88,1172c-.67-17.65-28.67-35.87-29-36.06l1.44-2.24c1.21.77,29.47,19.15,30.2,38.2Z"/><path id="Tracé_30" data-name="Tracé 30" class="cls-8" d="M816.43,842.85c-6.11-11.68-8-20-6-24.62a5,5,0,0,1,3.2-3l.59,2.68-.29-1.31.32,1.31a2.65,2.65,0,0,0-1.44,1.6c-.94,2.23-1.4,8,5.94,22.13Z"/><path id="Tracé_31" data-name="Tracé 31" class="cls-9" d="M470.77,1131.34s-9.48,85.22,48,128.59l28-41Z"/><path id="Tracé_32" data-name="Tracé 32" class="cls-5" d="M466.86,1125.84s63.37,92.14,79.89,92.92,59.75-33.25,73.89-46.46,7-146.25,0-145.53S516.85,1053.59,466.86,1125.84Z"/><path id="Tracé_33" data-name="Tracé 33" class="cls-4" d="M740.59,1189.21s-26.23-14.87-42-50.45c-14.57-32.77-50-90.34-112.33-57.15s-33.49,92.65-3.72,116c26.22,20.52,93.28,31.93,112.28,50.1Z"/><path id="Tracé_34" data-name="Tracé 34" class="cls-3" d="M730,1171.79s-56.26,66.76-54.28,69.25,37.51,34.83,43.08,33.76,54.2-65.61,54.28-69.25S734.56,1166.35,730,1171.79Z"/><path id="Tracé_35" data-name="Tracé 35" class="cls-3" d="M740.13,1209.46s-26.66,29.84-24.84,31.67,31.89,27.54,35.56,27.81,25.42-29.47,24.83-31.67S742.27,1207,740.13,1209.46Z"/><path id="Tracé_36" data-name="Tracé 36" class="cls-3" d="M696.22,1224.89l-2.46,1c-2.39-5.66-23-14.34-42.87-22.75C625.09,1192.28,598.41,1181,596,1171c-1.26-5.06.67-7.39,2.67-8.44a14.27,14.27,0,0,1,10.29-.19,27.91,27.91,0,0,1,.91-8,9.92,9.92,0,0,1,7.53-7.72,13.51,13.51,0,0,1,4.53-.16c-.24-.67-.46-1.34-.67-2a6,6,0,0,1,1.66-6.72c2.87-2.68,8.17-3.53,13.56-3.19a14.64,14.64,0,0,1,1.26-12,4.3,4.3,0,0,1,3.43-2c12.29-.88,52.67,43.51,75.65,70.06l1.24,1.39-2,1.8-1.24-1.42c-38-43.89-65.45-69.66-73.46-69.18a1.58,1.58,0,0,0-1.34.75,12.46,12.46,0,0,0-.67,10.91A29.41,29.41,0,0,1,647,1137c4.77,2.11,7.39,5.36,7.39,9,0,3.16-1.34,4.31-2.46,4.69-3.14,1.1-7.37-2.49-10.29-6.22a30.32,30.32,0,0,1-4.18-7.12c-5.36-.51-10.43.29-12.72,2.4a3.35,3.35,0,0,0-.94,3.91c.4,1.21.8,2.39,1.2,3.51a24.93,24.93,0,0,1,11.47,7.43c3.19,3.75,4.18,7.68,2.68,11.09-1.12,2.68-2.68,4.12-4.37,4.07-4-.14-7.6-7.77-12-20.34a11.9,11.9,0,0,0-4.9,0,7.26,7.26,0,0,0-5.52,5.77,24.71,24.71,0,0,0-.78,8.3,32.27,32.27,0,0,1,11,6.54c3.64,3.61,3,6.29,2.27,7.58a5.08,5.08,0,0,1-6.73,2.54l0,0c-3.81-1.53-7.83-7.24-8.93-14.63a13.08,13.08,0,0,0-9.24-.35c-.61.32-2.33,1.29-1.28,5.36,2.12,8.63,29.33,20.12,53.34,30.28C674.17,1210.13,693.43,1218.25,696.22,1224.89ZM612,1166.38c1.18,5.68,4.18,10,7,11.12a2.52,2.52,0,0,0,3.37-1.16l.09-.21c.8-1.42-.81-3.35-1.83-4.37a28.12,28.12,0,0,0-8.65-5.38Zm14-16.08c3.94,11,6.91,16.61,8.84,16.67.4,0,1.07-.62,1.82-2.41,1.34-3.27-.91-6.64-2.36-8.36a21.67,21.67,0,0,0-8.3-5.84Zm14.46-12.61a27.46,27.46,0,0,0,3.17,5c3.32,4.21,6.29,5.66,7.28,5.36.43-.13.67-1,.67-2.17,0-3.27-3.16-5.36-5.81-6.54a25.88,25.88,0,0,0-5.31-1.63Z"/><path id="Tracé_37" data-name="Tracé 37" class="cls-4" d="M762.31,1248.15s3-30,29.07-58.94c24.12-26.61,62.29-82.36,6.7-125.92s-98.27,6.94-107.48,43.61c-8,32.29,8.62,98.19-.3,122.92Z"/><path id="Tracé_38" data-name="Tracé 38" class="cls-3" d="M773.94,1231.4s-83.86-24.38-85.33-21.56-16.74,48.49-13.39,53.07,81.95,23,85.32,21.43S780.77,1233.36,773.94,1231.4Z"/><path id="Tracé_39" data-name="Tracé 39" class="cls-3" d="M743.61,1255.94s-38.07-12.27-39-9.86-12.22,40.19-11,43.7,37.29,11.28,39,9.86S746.72,1256.93,743.61,1255.94Z"/><path id="Tracé_40" data-name="Tracé 40" class="cls-3" d="M711.7,1222.05l-2-1.82c4.21-4.45,3.8-26.8,3.4-48.44-.51-28-1-57,7.07-63.23,4.13-3.19,7-2.38,8.77-1.07a14.37,14.37,0,0,1,4.34,9.35,28.08,28.08,0,0,1,7.79-2.47,9.81,9.81,0,0,1,10.07,3.75,13,13,0,0,1,2,4.08l1.58-1.45a6.06,6.06,0,0,1,6.83-1.2c3.53,1.58,6.54,6,8.41,11.11a14.57,14.57,0,0,1,11.55-3.72,4.29,4.29,0,0,1,3.16,2.31c5.79,10.9-18.43,65.82-33.38,97.6l-.77,1.68-2.44-1.1.8-1.74c24.7-52.51,37.22-88.09,33.43-95.19a1.62,1.62,0,0,0-1.23-.94,12.6,12.6,0,0,0-10.23,3.85,29.66,29.66,0,0,1,1.15,7.83c0,5.22-1.85,8.92-5.36,10.39-2.88,1.29-4.47.54-5.36-.34-2.27-2.41-.69-7.75,1.5-11.93a31.66,31.66,0,0,1,4.83-6.72c-1.66-5-4.48-9.38-7.37-10.72a3.34,3.34,0,0,0-3.94.73l-2.68,2.51a25,25,0,0,1-2.11,13.4c-2.15,4.42-5.36,6.94-9,7-3,0-4.82-.7-5.49-2.36-1.48-3.67,4-10.11,13.74-19.18a11.5,11.5,0,0,0-1.9-4.53,7.2,7.2,0,0,0-7.5-2.68,24.13,24.13,0,0,0-7.91,2.68,32.25,32.25,0,0,1-1.52,12.64c-1.85,4.8-4.56,5.36-6,5.17a5.12,5.12,0,0,1-5.06-5.17v0c0-4.1,3.46-10.08,9.75-14.07a12.89,12.89,0,0,0-3.43-8.6c-.5-.43-2.11-1.6-5.51,1-7,5.36-6.49,35-6,61.06C716.26,1196.06,716.63,1216.8,711.7,1222.05ZM731,1121.34c-4.69,3.35-7.39,7.85-7.29,10.91,0,1.61.92,2.44,2.68,2.68s2.68-2.08,3.25-3.43a27.31,27.31,0,0,0,1.36-10.15Zm20.34,6.25c-8.47,8-12.38,13.07-11.66,14.86,0,.38,1,.73,2.92.67a8.56,8.56,0,0,0,6.7-5.54,21.8,21.8,0,0,0,2-10Zm17.38,8a29.77,29.77,0,0,0-3.32,4.93c-2.49,4.75-2.68,8-1.9,8.84.29.33,1.12.22,2.22-.26,3-1.34,3.64-5.07,3.64-8a26.46,26.46,0,0,0-.64-5.39Z"/><path id="Tracé_41" data-name="Tracé 41" class="cls-4" d="M552.4,1273.76s27.25,12.91,45.55,47.2c17,31.64,56.58,86.43,116.25,48.74s26.57-94.85-4.85-115.9c-27.65-18.54-95.35-25-115.63-41.71Z"/><path id="Tracé_42" data-name="Tracé 42" class="cls-3" d="M564.27,1290.29s51.2-70.73,49-73.06-40-32.15-45.54-30.48-49.25,69.41-49.06,73.06S560.09,1296.07,564.27,1290.29Z"/><path id="Tracé_43" data-name="Tracé 43" class="cls-3" d="M551.36,1253.48s24.38-31.73,22.45-33.41S540,1195,536.3,1194.94s-23.17,31.31-22.42,33.43S549.4,1256.07,551.36,1253.48Z"/><path id="Tracé_44" data-name="Tracé 44" class="cls-3" d="M594,1234.86l2.38-1.21c2.68,5.36,24.12,12.6,44.48,19.51,26.52,9,54,18.24,57.11,28,1.63,5,0,7.42-1.93,8.6a14.25,14.25,0,0,1-10.26,1,28.15,28.15,0,0,1-.32,8,9.73,9.73,0,0,1-6.92,8.22,13.69,13.69,0,0,1-4.5.54l.8,2a6,6,0,0,1-1.15,6.83c-2.68,2.68-8,4.12-13.39,4.18a14.68,14.68,0,0,1-.35,12.13,4.3,4.3,0,0,1-3.27,2.2c-12.19,1.79-55.75-39.52-80.64-64.3l-1.31-1.31,1.87-1.93,1.34,1.34c41.13,41,70.41,64.7,78.37,63.55a1.59,1.59,0,0,0,1.28-.83,12.55,12.55,0,0,0-.16-10.93,29.87,29.87,0,0,1-7.77-1.56c-4.9-1.76-7.77-4.77-8-8.43-.24-3.17,1-4.37,2.12-4.85,3-1.32,7.53,2,10.71,5.35a30.25,30.25,0,0,1,4.69,6.81c5.36,0,10.37-1,12.52-3.35a3.33,3.33,0,0,0,.64-4c-.48-1.18-1-2.31-1.45-3.41a25.09,25.09,0,0,1-11.92-6.43,10.71,10.71,0,0,1-3.59-10.87c.91-2.84,2.3-4.32,4.07-4.4,3.94-.16,8,7.18,13.4,19.43a12.07,12.07,0,0,0,4.93-.27,7.27,7.27,0,0,0,5.06-6.16,25,25,0,0,0,0-8.36,31.91,31.91,0,0,1-11.39-5.71c-3.91-3.32-3.46-6-2.84-7.36a5.11,5.11,0,0,1,6.57-3h0c3.91,1.26,8.33,6.64,10,13.93a13.08,13.08,0,0,0,9.24-.32c.59-.35,2.22-1.48.88-5.55-2.68-8.46-30.73-17.92-55.43-26.25C617.11,1248,597.31,1241.29,594,1234.86ZM682.42,1287c-1.58-5.58-4.9-9.63-7.82-10.56a2.49,2.49,0,0,0-3.24,1.38,1.55,1.55,0,0,0-.08.23c-.7,1.47,1,3.26,2.14,4.2a27.58,27.58,0,0,0,8.92,4.74Zm-12.75,17c-4.74-10.72-8-16.07-10-16.07-.4,0-1,.69-1.63,2.54-1.1,3.37,1.39,6.57,3,8a22.09,22.09,0,0,0,8.63,5.49Zm-13.4,13.61a31,31,0,0,0-3.53-4.77c-3.61-4-6.72-5.2-7.66-4.77-.4.16-.61,1-.51,2.2.24,3.27,3.53,5.12,6.27,6.11a25.16,25.16,0,0,0,5.28,1.23Z"/><path id="Tracé_45" data-name="Tracé 45" class="cls-7" d="M536.52,1261S698.1,1116,737.85,1115.1s-24.24,26.31-24.24,26.31,40.67-19.16,45.19-7.13-29.47,33.14-29.47,33.14,37.83-16.07,38.56-5.22c.21,3.21-17.31,11.68-32,32.73-35.15,50.59-118.12,155.61-174.62,170.34C481.46,1386.28,500.32,1292.51,536.52,1261Z"/><path id="Tracé_46" data-name="Tracé 46" class="cls-6" d="M759.85,766.66h-2.68c.75-19.19-3.35-32.88-12.22-40.7a30.48,30.48,0,0,0-23.17-6.8l-.46-2.68a32.72,32.72,0,0,1,25.4,7.42C756.2,732.2,760.66,746.62,759.85,766.66Z"/><path id="Tracé_47" data-name="Tracé 47" class="cls-6" d="M731.61,767.11c-8.22-20-19.05-31.43-32.15-33.86-21.22-4-41.63,17.28-41.82,17.49l-2-1.84c.86-.91,21.6-22.48,44.26-18.27,14,2.68,25.48,14.55,34.11,35.47Z"/><path id="Tracé_48" data-name="Tracé 48" class="cls-6" d="M618.79,783.29l-1.69-2.06c.57-.48,57.79-46.08,92.62-9.06l-2,1.85C674.63,738.77,619.33,782.86,618.79,783.29Z"/><path id="Tracé_49" data-name="Tracé 49" class="cls-6" d="M631.6,869.61l-1-2.49c31.45-13,27.14-40,26.79-41.12l2.68-.46C660.21,825.84,665.12,855.82,631.6,869.61Z"/><path id="Tracé_50" data-name="Tracé 50" class="cls-6" d="M614.56,830l-2.38-1.18c.64-1.28,15.94-31.61,38.5-38.2a30,30,0,0,1,24.75,3.56l-1.36,2.3a27.52,27.52,0,0,0-22.64-3.29C630,799.55,614.72,829.69,614.56,830Z"/><path id="Tracé_51" data-name="Tracé 51" class="cls-6" d="M775.6,768.8l-1.28-2.36c.59-.32,14.47-8.28,6.46-25.8l2.43-1.12C792.27,759.37,775.76,768.69,775.6,768.8Z"/><path id="Tracé_52" data-name="Tracé 52" class="cls-6" d="M689.52,957.62l-2.46-1c4.07-10,1.6-21.59-2.06-29.12a17.18,17.18,0,0,0-3.46-5.17,2.62,2.62,0,0,0,0,.56c0,9.86-5.36,27.12-5.49,27.84l-2.55-.8c0-.16,5.36-17.55,5.36-27,0-1.82.51-3,1.53-3.4s2.11,0,3.32,1.15C687.78,924.78,695.82,942.27,689.52,957.62Z"/><path id="Tracé_53" data-name="Tracé 53" class="cls-9" d="M1020.82,947.09s90.16-1.12,103-8c0,0-14.2,50.9-46.91,87.79C1076.92,1026.77,1020.39,970.19,1020.82,947.09Z"/><path id="Tracé_54" data-name="Tracé 54" class="cls-5" d="M836.18,1005.85s116.56-25.62,151.12-68.43c22.07-27.33,97.36,86.7,93.9,104.94S936.66,1153.47,920.59,1149,836.18,1024.23,836.18,1005.85Z"/><path id="Tracé_55" data-name="Tracé 55" class="cls-6" d="M948.46,1122.9c-7.21-74.11-59.29-107.17-59.83-107.46l1.42-2.28c.54.32,53.75,34.05,61.09,109.49Z"/><path id="Tracé_56" data-name="Tracé 56" class="cls-3" d="M1439.38,604.57s27.11,16.88,17.81,49.91-36.38,17.15-31.4,13.4,8.77,5,2.15,14-48.76,18.25-59.83-28.53,24.73-48.46,31.14-42.57-14.15,7.55-7-8.87S1423.62,586.35,1439.38,604.57Z"/><path id="Tracé_57" data-name="Tracé 57" class="cls-3" d="M1508.82,719.75a28,28,0,0,1-9.24,31.82c-16.83,13.4-24.76-4.63-20.85-4.71s2.68,5.76-4,7.88-31.4-8.6-19.88-36.39,30.3-15.51,31.37-10.18-9.94-1.34-.29-7.07S1507.57,704.77,1508.82,719.75Z"/><path id="Tracé_58" data-name="Tracé 58" class="cls-3" d="M922,791.52a23.53,23.53,0,0,1-26.79,8.17c-17.17-5.71-8-19.59-6.3-16.88s-2.84,4.5-7.39.8-8.42-26.12,16.47-30.78,24.89,14.2,21.63,17.41-3.62-7.61,4.85-3.45S932,783.83,922,791.52Z"/><path id="Tracé_59" data-name="Tracé 59" class="cls-3" d="M886.57,826.05a15.46,15.46,0,0,1,6.16,17.31c-3.21,11.44-12.59,5.94-10.87,4.63s3,1.74.75,4.85-16.91,6.32-20.74-9.88,8.57-16.8,10.72-14.76-4.88,2.68-2.41-3.08S881.16,819.72,886.57,826.05Z"/><path id="Tracé_60" data-name="Tracé 60" class="cls-3" d="M1013.4,715.08l1.31,2.33a84.33,84.33,0,0,0-11,7.29l-1.66-2.09a85.3,85.3,0,0,1,11.3-7.52Zm-20.66,17.66,2.28,1.42a21.54,21.54,0,0,0-3.37,10.29v1.66H989v-1.88a24.11,24.11,0,0,1,3.89-11.49Zm2.07,25.72a89.06,89.06,0,0,0,6.51,11.49l-2.25,1.44a91.54,91.54,0,0,1-6.7-11.81Zm13.9,22.63a115.34,115.34,0,0,1,6.91,11.69l-2.4,1.17a124.22,124.22,0,0,0-6.73-11.39Zm11.47,24.63a32.37,32.37,0,0,1,.51,4.6v3.57a34.84,34.84,0,0,1-.83,5.65l-2.68-.62a29.25,29.25,0,0,0,.75-5.19v-3.3a29.05,29.05,0,0,0-.46-4.26ZM968,803.44l1.74,2a5.08,5.08,0,0,0-1.53,3.69,15.48,15.48,0,0,0,.35,3.78,29.64,29.64,0,0,0,1,3.72l-2.54.89a28.78,28.78,0,0,1-1.1-4.07,16.86,16.86,0,0,1-.41-4.48,7.71,7.71,0,0,1,2.57-5.57Zm14.15,1.15a44.46,44.46,0,0,1,10.71,8.55L991,815a41.63,41.63,0,0,0-10.13-8Zm18.75,19.69a51.05,51.05,0,0,1,3.91,9.35,20.28,20.28,0,0,0,6.24-3.91l1.83,2a23.46,23.46,0,0,1-7.35,4.53,3.78,3.78,0,0,0,.22.88l-2.68.59-.16-.64a22.38,22.38,0,0,1-2.68.56l-.43-2.68a19,19,0,0,0,2.47-.5,48.75,48.75,0,0,0-3.73-8.92Zm-24.57,3.05a28.2,28.2,0,0,0,10.88,6.54l-.83,2.54a31.2,31.2,0,0,1-11.92-7.15Zm-53.2,17.76a12.47,12.47,0,0,1,7.63,4L928.92,851c-3.72-3.59-7.39-4.31-9.51-1.39L917.24,848a6.66,6.66,0,0,1,5.93-2.91Zm82.57,5.66h1.33a54.55,54.55,0,0,1-2.54,13.39l-2.55-.83a51.69,51.69,0,0,0,2.41-12.67Zm-67.57,10.07a41.18,41.18,0,0,1,2.68,13.39h-2.68a38.81,38.81,0,0,0-2.49-12.64Zm-21,.86a47.77,47.77,0,0,0,2.68,12.72l-2.52.86a49.07,49.07,0,0,1-2.68-13.4Zm79.41,13.71,2.33,1.34c-1.12,2-2.38,3.89-3.69,5.81s-2.68,3.68-4,5.36l-2.09-1.66a61,61,0,0,0,3.94-5.36c1.26-2,2.49-3.64,3.56-5.54Zm-71.13,10.72a52.3,52.3,0,0,0,7.56,9.35,44,44,0,0,0,3.45-8.31l2.68.75a46.49,46.49,0,0,1-5.84,12.43l-2.25-1.44c.25-.35.46-.7.68-1a54.92,54.92,0,0,1-8.42-10.32Zm54.6,9.62,1.77,2a49.48,49.48,0,0,1-11.44,7.59l-1.12-2.44a46,46,0,0,0,10.79-7.16Zm-35.63,7.61a28.63,28.63,0,0,0,12.43,2.55v2.68a31.7,31.7,0,0,1-13.58-2.68Zm-21.89,5.52,1.82,2a46.13,46.13,0,0,1-11.27,7.85l-1.18-2.41a43.46,43.46,0,0,0,10.63-7.39Zm-60.22,1.45A64.21,64.21,0,0,0,874,916.25l-1,2.49a63.14,63.14,0,0,1-12.19-6.24ZM899.57,920l.34,2.68a49.41,49.41,0,0,1-13.74-.24l.43-2.68a46.89,46.89,0,0,0,13,.24Z"/><path id="Tracé_62" data-name="Tracé 62" class="cls-3" d="M589.88,946.91s-5.09,17.2-7,17.84S574,968.6,574,968.6l11.92,7,6.59,16.52s4-17.57,5.84-19.29c3-2.84,11.76-5.94,11.76-5.94s-13-2.41-14.87-5.18S589.88,946.91,589.88,946.91Z"/><path id="Tracé_63" data-name="Tracé 63" class="cls-3" d="M835.1,595.32s39.44-32.9,85.2-2,7.85,64.3,4.61,54.73,12.05-10.85,22.45,3.78,3.26,83.67-73.76,77-61.62-62.21-49.29-69,4.39,25.37-17.1,6.19S799.36,610,835.1,595.32Z"/><path id="Tracé_64" data-name="Tracé 64" class="cls-10" d="M879.87,692.68a26.48,26.48,0,0,1-8.6-1.34C855.2,686,854,669.13,853.91,668.4a5.1,5.1,0,0,1,10.18-.59h0c0,.43.86,10.72,10.32,13.83A13.81,13.81,0,0,0,888,679.58a8.81,8.81,0,0,0,2.47-9c-1.69-7.48-4.91-8-11.95-9.68a36.87,36.87,0,0,1-17.6-7.55A18.75,18.75,0,0,1,855,631.51a22.43,22.43,0,0,1,21.43-14.17c16.83.67,23.15,17.09,23.42,17.79a5.09,5.09,0,0,1-9.53,3.59c-.19-.48-4.32-10.72-14.31-11.17a12.29,12.29,0,0,0-11.55,7.69,8.64,8.64,0,0,0,3,10.39,27.24,27.24,0,0,0,13.1,5.36c7.42,1.58,16.66,3.53,19.77,17.41a18.93,18.93,0,0,1-5.54,18.76,22.26,22.26,0,0,1-14.92,5.52Z"/><path id="Tracé_65" data-name="Tracé 65" class="cls-10" d="M880,704.37a5.09,5.09,0,0,1-5.14-5h0V687.65a5.11,5.11,0,0,1,10.2,0v11.71A5.09,5.09,0,0,1,880,704.37Z"/><path id="Tracé_66" data-name="Tracé 66" class="cls-10" d="M879.44,627.5a5.07,5.07,0,0,1-5.35-4.76v-12a5.09,5.09,0,0,1,10.18,0h0v11.68a5.1,5.1,0,0,1-4.83,5.07Z"/><path id="Tracé_67" data-name="Tracé 67" class="cls-5" d="M1251.84,731.93s-61.62,26.79-63.31,66.1,23.15,40.48,16.08,69.36-8,30.36,6.27,40.32,30.3,1.77,33.46,21.06,19,17.49,34.7,0S1212.45,806.07,1251.84,731.93Z"/><path id="Tracé_68" data-name="Tracé 68" class="cls-7" d="M1266.44,852.25s30.2,112.77-1.2,148.24S1133,1023.87,1151.78,1158s22.37,248.43,22.37,248.43h309s48.68-294.7-3.59-360.74-119.06-12.13-114.88-64.14-12.54-143.92-12.54-143.92Z"/><path id="Tracé_69" data-name="Tracé 69" class="cls-8" d="M1365.19,971.77s-11.78,55.8-86.77-7c0,0-1.8-48.87-1.8-52.46s90.16,6.7,90.61,8.95S1367.61,967.8,1365.19,971.77Z"/><path id="Tracé_70" data-name="Tracé 70" class="cls-5" d="M1248,1011.63s36.6,98.3,107.48,78.8c49.11-13.4,26.31-85.87,38.19-84.61s50.9-4.42,89.45,32.44,41.53,368.17,29.47,368.17-340.78,1.12-351,0-28.62-317.26-14.28-345.82S1141.76,1028,1248,1011.63Z"/><path id="Tracé_71" data-name="Tracé 71" class="cls-7" d="M1415.27,835s-1.61-22.64-15.27-23.39-19.29,39.76-1,46.16S1415.51,837.73,1415.27,835Z"/><path id="Tracé_72" data-name="Tracé 72" class="cls-7" d="M1257.76,769.63s94.39-48.23,124-5.36,33,204.52-42.46,198.26S1204.55,789.32,1257.76,769.63Z"/><path id="Tracé_73" data-name="Tracé 73" class="cls-5" d="M1254.79,800.2s-14.17,94.68,43.83,112.52c28.13,8.6,15.11-41.79,55.83-38.93,28.85,2,26,33.41,39.54,9s-16.71-97.95-6.37-91.52,60.39,141-10.32,166.64c-66.71,24.11-114.07-17.41-131-80.8S1240.21,785.49,1254.79,800.2Z"/><path id="Tracé_74" data-name="Tracé 74" class="cls-8" d="M1349.92,868.35a182,182,0,0,1-18.94-1.44l.3-2.68c9.46,1.1,20.49,1.85,23,1.23-.16-3.27-5.92-19-11.65-33.06l2.47-1c13.69,33.47,12,35.26,11.33,35.93A11.79,11.79,0,0,1,1349.92,868.35Z"/><path id="Tracé_75" data-name="Tracé 75" class="cls-5" d="M1253.61,813.19s-5.71-39.86,47.85-53c63.39-15.54,81,23.42,90.8,66.33,6.56,28.72,20.23-26.06-9.63-70.16-34.82-51.31-108.9-44.56-136.93-19.8-34.82,30.81-39.38,100.17-8.33,124.69S1249.16,829,1253.61,813.19Z"/><path id="Tracé_76" data-name="Tracé 76" class="cls-7" d="M1249.16,873s-7.34-21.43-20.71-18.75-8.52,43.35,10.72,44.9S1250.21,875.56,1249.16,873Z"/><ellipse id="Ellipse_5" data-name="Ellipse 5" class="cls-5" cx="1307.58" cy="845.08" rx="6.01" ry="8.5" transform="translate(-210.46 499.42) rotate(-20.05)"/><ellipse id="Ellipse_6" data-name="Ellipse 6" class="cls-5" cx="1365.06" cy="831.81" rx="6" ry="8.49" transform="translate(-184.58 439.51) rotate(-17.15)"/><path id="Tracé_77" data-name="Tracé 77" class="cls-8" d="M1242.3,893.59l-.58-2.68a2.68,2.68,0,0,0,2.06-2.14c1.79-5.58-3.16-18.76-8-24.27-1.37-1.56-2.68-2.23-3.69-2-1.79.35-3.16,3.08-3.51,4l-2.52-.91c.19-.51,2-5,5.55-5.71a6.73,6.73,0,0,1,6.19,2.87c5,5.6,10.71,19.88,8.57,26.79A5.51,5.51,0,0,1,1242.3,893.59Z"/><circle id="Ellipse_7" data-name="Ellipse 7" class="cls-9" cx="1301.27" cy="880.2" r="12.81"/><circle id="Ellipse_8" data-name="Ellipse 8" class="cls-9" cx="1380.38" cy="861.82" r="12.81"/><path id="Tracé_78" data-name="Tracé 78" class="cls-7" d="M1335.56,917s-11.3-28.56,12.7-34.83c20.58-5.36,26.79,15.88,26.55,29-.16,8.52-3.32,12.86-17.22,16.75S1335.56,921.11,1335.56,917Z"/><path id="Tracé_79" data-name="Tracé 79" class="cls-8" d="M1355.31,910.39a5.93,5.93,0,0,1-1.91-.32c-9.91-3.19-15-15.24-15.21-15.75l2.46-1s4.85,11.41,13.59,14.22a2.43,2.43,0,0,0,2.46-.29c3.19-2.68,3.29-13.85,2.68-20.34l2.68-.29c.19,1.87,1.71,18.4-3.62,22.69a4.67,4.67,0,0,1-3.13,1.1Z"/><path id="Tracé_80" data-name="Tracé 80" class="cls-5" d="M1307.27,823.05c1.85,3.67-4.9,2.44-10.91,5.36s-9.08,9.16-10.93,5.49,1.55-9.14,7.58-12.16S1305.42,819.35,1307.27,823.05Z"/><path id="Tracé_81" data-name="Tracé 81" class="cls-5" d="M1374.55,810.51c.24,4.1-5.36.3-12.2.67s-11.95,4.8-12.19.7,5-7.77,11.76-8S1374.3,806.39,1374.55,810.51Z"/><path id="Tracé_82" data-name="Tracé 82" class="cls-5" d="M1283.3,766.6s-25.77,11.33-22,36.17c2,13,28.35,37-5.84,54.47C1255.4,857.24,1216.85,787.69,1283.3,766.6Z"/><path id="Tracé_83" data-name="Tracé 83" class="cls-5" d="M1325,756.69s34.64-1.77,43.26,19.26c5.52,13.4,28.64,59.21,40.46,57C1424.16,830.15,1401.87,737.29,1325,756.69Z"/><path id="Tracé_84" data-name="Tracé 84" class="cls-4" d="M1265.24,1412.43s-40.06-337.27-34.11-398.14c0,0-56.56-4.72-81.6,104.94-13.86,60.73,0,272.81,12,287.2S1265.24,1412.43,1265.24,1412.43Z"/><path id="Tracé_85" data-name="Tracé 85" class="cls-5" d="M1298.62,729.9s7.15-29.47,55.24-20.79,67.84,29.63,64.09,44.55,33.06,25.75,25,45.79-38,30.3-36.06,38.18-15.7-28.35-22.85-52.27S1323.91,718.81,1298.62,729.9Z"/><path id="Tracé_86" data-name="Tracé 86" class="cls-7" d="M1441.52,1021.53s125.25-25.75,169.91-93.35S1501.19,682.4,1504.75,601.84s16.07,1.64,28.59,20.36,62.39-36,75,37.7c10.5,61.92,166.24,249.16,57.31,361.68s-187.84,99.88-187.84,99.88S1438.2,1063.9,1441.52,1021.53Z"/><path id="Tracé_87" data-name="Tracé 87" class="cls-4" d="M1433.86,1010s20.44,337.57,17.92,395.87c0,0,67.94.53,77.37,0s-6.72-357.77-16.45-370.25S1433.86,1010,1433.86,1010Z"/><path id="Tracé_88" data-name="Tracé 88" class="cls-3" d="M1714.58,1444.58s-330.18,13.82-338.75,11.52-87.91-87.53-81.48-87.53h87.91s15-154.32,23.6-156.62,334.46-4.61,340.89,0S1714.58,1444.58,1714.58,1444.58Z"/><path id="Tracé_89" data-name="Tracé 89" class="cls-5" d="M1376.26,1433.89s-51.52-56.1-45.09-56.1h47.15Z"/><path id="Tracé_90" data-name="Tracé 90" class="cls-7" d="M1035.31,1167.61s-59.66,60-58.32,160.46,96.45,129.94,160.75,116.54,109.39-79.38,128.14-64.81,32.15,19.07,38.77,19.93c3.48.46,30.24-10.5,27.75-15-27.54-49.56,12.86-8.7,29.47,13.83,6,8.22-5.65-90.93-75.84-88.25-46.46,1.76-127.16,76.65-178.06,44.5s-4.77-91.09-4.77-91.09Z"/><circle id="Ellipse_9" data-name="Ellipse 9" class="cls-5" cx="1551.45" cy="1329.46" r="22.32"/><path id="Tracé_91" data-name="Tracé 91" class="cls-4" d="M1433.86,1010s98.27-21.13,139.9-56.85,91.63,99.64,89.84,121.07-139.32,82.84-173.24,73.92S1433.86,1010,1433.86,1010Z"/><path id="Tracé_92" data-name="Tracé 92" class="cls-7" d="M1544.08,633.8s17.65,39.38,24.11,40.8-4.93-47.85-4.93-47.85,6.4,35.07,14.2,41.48,2.14-46.17,2.14-46.17,2.12,39.76,12.06,46.17,7.8-33.57,7.8-33.57"/><path id="Tracé_93" data-name="Tracé 93" class="cls-8" d="M1568.43,676a2.62,2.62,0,0,1-.56,0c-6.73-1.5-22-34.83-25-41.58l2.44-1.1c7.16,15.91,18.89,38.6,23,40,1.58-2.27-.43-17.38-3.68-33.65-1.63-6.75-2.67-12.08-2.67-12.61l2.67-.54c.68,2.87,1.72,7.55,2.68,13,2.68,11.11,6.78,24.35,11,27.75a1,1,0,0,0,.38.24c2-1.31,1.95-16.26.72-32.6-.83-6.84-1.12-12.09-1.15-12.68l2.68-.21c.37,3.48.85,8.17,1.23,13.39,1.6,12.73,4.79,28.4,10.23,31.91,1.15.73,1.69.43,1.88.3,3.75-2.17,4.5-20.42,3.85-32.66h2.68c.27,5.2,1.34,31.32-5.2,35.12a4.22,4.22,0,0,1-4.66-.37c-3.51-2.28-6.08-8.23-8-15.17,0,8-.86,14.39-3.13,15.62a2.68,2.68,0,0,1-3.21-.56,25.31,25.31,0,0,1-5.87-9.63c.91,7.64,1,13.94-.62,15.65A2.37,2.37,0,0,1,1568.43,676Z"/><path id="Tracé_94" data-name="Tracé 94" class="cls-7" d="M1530.47,659.57s36.94-30.25,43.21-21.16-33.94,44.68-33.94,44.68"/><path id="Tracé_95" data-name="Tracé 95" class="cls-8" d="M1540.7,684.08l-1.79-2c28.64-25.4,35.9-39.81,33.76-42.86a2.7,2.7,0,0,0-1.93-1.08c-8.28-1.17-31.21,15.86-39.36,22.54l-1.69-2.07c1.23-1,30.36-24.73,41.39-23.12a5.33,5.33,0,0,1,3.78,2.2C1581.37,647.19,1547.56,678,1540.7,684.08Z"/><path id="Tracé_96" data-name="Tracé 96" class="cls-6" d="M1409.35,820.56l-2.31-1.34c4.72-8,6.3-13.77,4.85-17.44s-6.75-5.55-12.27-7.21c-4.87-1.47-9.88-3-13.39-6.29-5.36-5.18-4-12.36-2.68-19.29,1.39-8,2.68-15.54-4.07-21.44-13-11.33-53.59,1.32-54.1,1.45l-.8-2.68c1.72-.54,42.52-13.21,56.66-.89,8,6.92,6.35,15.94,5,23.93-1.21,6.83-2.25,12.72,2,16.9a29.51,29.51,0,0,0,12.14,5.66c5.89,1.76,12,3.59,14,8.79C1416.18,805.34,1414.6,811.64,1409.35,820.56Z"/><path id="Tracé_97" data-name="Tracé 97" class="cls-6" d="M1223.31,845.66a4.32,4.32,0,0,1,0-4.07c1.71-3,7.23-3.61,13.66-4.37s13.59-1.6,15.62-4.82c1.23-2-1.47-6.35-4.61-11.39-7.2-11.6-18.08-29.12-2.24-48.76,23.1-28.64,61.62-19.58,62.1-19.48l-.64,2.68c-.35,0-37.38-8.73-59.37,18.57-14.63,18.16-4.77,34.05,2.44,45.54,3.91,6.3,6.72,10.86,4.58,14.23-2.68,4.32-10.27,5.2-17.57,6.06-5,.58-10.72,1.26-11.66,3a1.86,1.86,0,0,0,0,1.69Z"/><path id="Tracé_98" data-name="Tracé 98" class="cls-6" d="M1212.48,859.33l-2.4-1.18c7.23-14.92,5.09-20.74,2.11-28.8s-6.53-17.61-2.22-38.85c13-64.3,85.73-50.48,86.56-50.32l-.53,2.68a100.3,100.3,0,0,0-37.16.75c-25.45,5.66-41,21.62-46.24,47.48-4.16,20.49-.83,29.47,2.08,37.51C1217.79,836.77,1220.23,843.36,1212.48,859.33Z"/><path id="Tracé_99" data-name="Tracé 99" class="cls-6" d="M1422.9,779.27a38.15,38.15,0,0,1-17.3-5c-3-1.85-3.94-5.74-5-10.72-2-9.11-5.14-22.85-25.19-34.45-29.47-17.1-54.06,7-55.08,8l-1.9-1.87c.26-.27,27-26.55,58.32-8.44,21.06,12.19,24.3,26.63,26.47,36.2,1,4.47,1.72,7.69,3.81,9a35.87,35.87,0,0,0,16.07,4.64Z"/><path id="Tracé_100" data-name="Tracé 100" class="cls-7" d="M1302.45,1366.62s17.73,16.5,20.12,26.36"/><path id="Tracé_101" data-name="Tracé 101" class="cls-8" d="M1321.26,1393.3c-2.25-9.38-19.56-25.56-19.72-25.72l1.82-1.95c.72.69,18.06,16.9,20.52,27Z"/><path id="Tracé_102" data-name="Tracé 102" class="cls-7" d="M1286,1372.88s20.28,16.51,23.71,25.75"/><path id="Tracé_103" data-name="Tracé 103" class="cls-8" d="M1308.4,1399.06c-3.25-8.81-23.1-25-23.28-25.16l1.68-2.08c.83.69,20.61,16.82,24.12,26.33Z"/><path id="Tracé_104" data-name="Tracé 104" class="cls-9" d="M1608.65,956.47s36.62,9.19,70.14,49.38c0,0-14.44,19.55-25.3,27.81C1653.49,1033.6,1622.44,964.75,1608.65,956.47Z"/><path id="Tracé_105" data-name="Tracé 105" class="cls-11" d="M1523.42,1135.83c-15.8-85.73-42.86-113.33-43.21-113.59l1.87-1.91c1.16,1.13,28,28.54,44,115Z"/><path id="Tracé_106" data-name="Tracé 106" class="cls-6" d="M1343.74,1113c-67.57,0-98.57-78.18-98.89-79l2.52-1c.29.8,32.58,82.22,102.8,77,18.51-1.36,32.36-8.25,41.17-20.41,18.76-25.91,8.79-67.68,8.68-68.1l2.68-.65c.43,1.77,10.43,43.38-9.08,70.3-9.32,12.86-23.84,20.1-43.15,21.44A44.57,44.57,0,0,1,1343.74,1113Z"/><path id="Tracé_107" data-name="Tracé 107" class="cls-9" d="M992,1241.61s-14.34,86.45,96.45,92.57c0,0-9-21.68,0-39.36C1088.41,1294.9,1003.3,1248.63,992,1241.61Z"/><path id="Tracé_108" data-name="Tracé 108" class="cls-4" d="M1103.61,1301.73s-119.92-52.08-126.62-77c-9.38-34.82,133.34-209.58,254.2-210.49,0,0-28.78,104.13-14.76,148.23C1221.78,1179.37,1168.41,1225.53,1103.61,1301.73Z"/><path id="Tracé_109" data-name="Tracé 109" class="cls-11" d="M1143.82,1241.77c-9.75-136.64,27.17-188.18,27.54-188.69l2.14,1.6c-.37.49-36.7,51.44-27,186.9Z"/><path id="Tracé_110" data-name="Tracé 110" class="cls-3" d="M826.26,1173.1s-5.11,17.2-7,17.85-8.92,3.83-8.92,3.83l11.92,7,6.59,16.52s4-17.57,5.84-19.29c3-2.84,11.76-6,11.76-6s-13-2.4-14.87-5.17S826.26,1173.1,826.26,1173.1Z"/><path id="Tracé_111" data-name="Tracé 111" class="cls-3" d="M464.82,1175.25s-5.11,17.2-7,17.84-8.93,3.83-8.93,3.83l11.93,7,6.56,16.52s4.05-17.54,5.87-19.29c3-2.84,11.76-5.94,11.76-5.94s-13-2.39-14.9-5.17A93.89,93.89,0,0,1,464.82,1175.25Z"/></g></g></svg>