<svg xmlns="http://www.w3.org/2000/svg" width="1268.539" height="1080" viewBox="0 0 1268.539 1080">
  <g id="Group_6" data-name="Group 6" transform="translate(-651.461 0)">
    <path id="Path_112" data-name="Path 112" d="M0,0H1189V1080H0S131.712,909.382,0,539.92,0,0,0,0Z" transform="translate(710)" fill="#fea809" opacity="0.26"/>
    <path id="Path_2" data-name="Path 2" d="M0,0H1189V1080H0S131.712,909.382,0,539.92,0,0,0,0Z" transform="translate(731)" fill="#fea809" opacity="0.26"/>
    <g id="_3378288" data-name="3378288" transform="translate(931 -544)">
      <g id="OBJECTS" transform="translate(1.154 695.915)">
        <path id="Path_3" data-name="Path 3" d="M766.187,85.047S598.169,6.958,466.506,62.5c-109.251,46.109-65.13,101.636-162.274,100.617s-183.85,92.368-132.18,238.459c26.887,76-95.708,156.98-19.522,241.014,94.572,104.325,291.3,6.5,598.461,46.994C920.6,711.915,1019.86,552.5,906.167,430.119c-83.784-90.18-31.229-111.038-32.181-196.242C873,143.5,766.187,85.047,766.187,85.047Z" transform="translate(-125.45 -42.556)" fill="#010a43" opacity="0.49"/>
        <path id="Path_4" data-name="Path 4" d="M400.269,79.1S459.136,35.343,521.911,83s6.045,92.184,2.188,78.39,18.053-14.512,31.73,7.164S553.792,288.1,444.524,272.416,361.742,178.779,379.744,170.1s4.242,36.54-24.85,7.465S348.181,97.183,400.269,79.1Z" transform="translate(18.476 -30.36)" fill="#fff"/>
        <path id="Path_5" data-name="Path 5" d="M412.337,203.951s.15-17.819-13.36-36.456c-12.458-17.168-31.429-52.354,4.008-74.4s57.314,10.287,60.437,32.431c2.755,19.506-11.272,57.181-7.582,72.278Z" transform="translate(45.669 -13.632)" fill="#e7b780"/>
        <path id="Path_6" data-name="Path 6" d="M411.176,178.3l-.351-1.019c-8.35-23.981-17.351-53.774-13.46-59.535a2.555,2.555,0,0,1,2.054-1.169,8.6,8.6,0,0,1,6.53,2.889c1.436-2.839,3.474-5.277,5.645-5.979a3.657,3.657,0,0,1,3.991,1.169l.785.885a7.682,7.682,0,0,1,1.42-2.2,5.828,5.828,0,0,1,6.212-1.67,16.249,16.249,0,0,1,4.375,1.92,8.467,8.467,0,0,1,3.156-5.194c1.1-.651,2.889-.969,5.127,1.186,4.392,4.208,2.255,21.209.184,37.642-1.67,12.675-3.24,25.785-1.086,28.657l-1.319,1c-2.589-3.34-1.035-15.665.751-29.876,1.921-15.281,4.092-32.6.317-36.222-1.8-1.67-2.789-1.136-3.123-.952a7.665,7.665,0,0,0-2.538,4.793c3.457,2.756,5.194,6.5,4.843,8.918a3.123,3.123,0,0,1-3.34,2.756c-.868,0-2.438-.468-3.223-3.44a19.089,19.089,0,0,1-.117-7.532,14.478,14.478,0,0,0-4.442-2.037,4.225,4.225,0,0,0-4.542,1.085,7.166,7.166,0,0,0-1.386,2.522c5.144,5.962,7.966,10.02,6.864,12.174-.518.935-1.67,1.3-3.423,1.052a6.413,6.413,0,0,1-4.893-4.743,15.03,15.03,0,0,1-.4-8.083l-1.436-1.67a1.92,1.92,0,0,0-2.221-.668c-1.67.551-3.657,2.939-5.01,5.761a18.371,18.371,0,0,1,2.4,4.242c1.035,2.605,1.67,5.845.117,7.131-.551.468-1.536.835-3.19-.117s-2.755-3.34-2.421-6.48a17.522,17.522,0,0,1,1.152-4.526,7.265,7.265,0,0,0-5.711-2.856.868.868,0,0,0-.751.451c-2.655,3.908,2.438,25.618,13.644,58.032.2.551.317.919.367,1.052Zm-4.743-55.611a13.642,13.642,0,0,0-.718,3.106c-.184,1.67,0,3.908,1.67,4.876.6.334,1.086.451,1.269.3.468-.417.518-2.472-.585-5.26A18,18,0,0,0,406.433,122.69Zm10.721-3.674a12.792,12.792,0,0,0,.585,5.878c.434,1.253,1.486,3.34,3.557,3.657,1.1.15,1.67,0,1.67-.2.417-.7-.4-2.922-5.812-9.335Zm12.358-2.421a16.833,16.833,0,0,0,.2,5.928c.217.8.718,2.171,1.67,2.188a1.449,1.449,0,0,0,1.67-1.319c.234-1.77-1.035-4.542-3.54-6.8Z" transform="translate(54.93 1.23)" fill="#fff"/>
        <path id="Path_7" data-name="Path 7" d="M397.542,153.192s50.835-9.035,51.519-7.281,6.78,29.559,4.526,32.047-49.632,8.35-51.519,7.264S393.317,153.91,397.542,153.192Z" transform="translate(54.769 26.54)" fill="#3e2d4a"/>
        <path id="Path_8" data-name="Path 8" d="M406.878,161.45s23.146-4.793,23.564-3.34,4.643,24.465,3.724,26.386-22.645,4.258-23.564,3.34S404.991,161.767,406.878,161.45Z" transform="translate(61.633 34.681)" fill="#3e2d4a"/>
        <rect id="Rectangle_20" data-name="Rectangle 20" width="1.67" height="14.846" transform="translate(456.66 50.734) rotate(-12.99)" fill="#3e2d4a"/>
        <rect id="Rectangle_21" data-name="Rectangle 21" width="14.846" height="1.67" transform="matrix(0.233, -0.972, 0.972, 0.233, 481.088, 64.723)" fill="#3e2d4a"/>
        <rect id="Rectangle_22" data-name="Rectangle 22" width="1.67" height="14.846" transform="matrix(0.667, -0.745, 0.745, 0.667, 431.298, 62.622)" fill="#3e2d4a"/>
        <rect id="Rectangle_23" data-name="Rectangle 23" width="1.67" height="14.846" transform="translate(411.881 77.537) rotate(-64.69)" fill="#3e2d4a"/>
        <rect id="Rectangle_24" data-name="Rectangle 24" width="1.67" height="14.846" transform="matrix(0.117, -0.993, 0.993, 0.117, 402.087, 100.924)" fill="#3e2d4a"/>
        <rect id="Rectangle_25" data-name="Rectangle 25" width="1.67" height="14.846" transform="matrix(0.067, -0.998, 0.998, 0.067, 402.06, 123.728)" fill="#3e2d4a"/>
        <rect id="Rectangle_26" data-name="Rectangle 26" width="14.913" height="1.677" transform="translate(408.04 143.436) rotate(-9.744)" fill="#3e2d4a"/>
        <rect id="Rectangle_27" data-name="Rectangle 27" width="14.846" height="1.67" transform="matrix(0.837, -0.548, 0.548, 0.837, 416.441, 165.737)" fill="#3e2d4a"/>
        <rect id="Rectangle_28" data-name="Rectangle 28" width="14.846" height="1.67" transform="matrix(0.613, -0.79, 0.79, 0.613, 429.263, 184.619)" fill="#3e2d4a"/>
        <rect id="Rectangle_29" data-name="Rectangle 29" width="14.846" height="1.67" transform="matrix(0.711, -0.703, 0.703, 0.711, 500.259, 69.61)" fill="#3e2d4a"/>
        <rect id="Rectangle_30" data-name="Rectangle 30" width="14.863" height="1.67" transform="translate(515.186 86.503) rotate(-32.63)" fill="#3e2d4a"/>
        <rect id="Rectangle_31" data-name="Rectangle 31" width="14.846" height="1.67" transform="matrix(0.97, -0.244, 0.244, 0.97, 522.372, 106.976)" fill="#3e2d4a"/>
        <rect id="Rectangle_32" data-name="Rectangle 32" width="1.67" height="14.846" transform="matrix(0.125, -0.992, 0.992, 0.125, 526.159, 127.048)" fill="#3e2d4a"/>
        <rect id="Rectangle_33" data-name="Rectangle 33" width="1.67" height="14.846" transform="translate(522.7 148.096) rotate(-63.87)" fill="#3e2d4a"/>
        <rect id="Rectangle_34" data-name="Rectangle 34" width="1.67" height="14.846" transform="matrix(0.744, -0.668, 0.668, 0.744, 516.312, 162.954)" fill="#3e2d4a"/>
        <rect id="Rectangle_35" data-name="Rectangle 35" width="51.319" height="1.67" transform="matrix(0.992, -0.125, 0.125, 0.992, 453.536, 191.234)" fill="#34253d"/>
        <rect id="Rectangle_36" data-name="Rectangle 36" width="52.572" height="1.67" transform="translate(456.142 202.106) rotate(-11.38)" fill="#34253d"/>
        <path id="Path_9" data-name="Path 9" d="M317.14,233.341s-3.507-40.247-38.41-47.244-54.642,32.966-74.816,49.733-10.154,55.928,4.876,65.982,5.628,43.42,35.938,48.43S358.606,300.959,317.14,233.341Z" transform="translate(-81.645 53.07)" fill="#3e2d4a"/>
        <path id="Path_10" data-name="Path 10" d="M262.609,245.328s18.821,70.29-.718,92.434-82.465,14.579-70.741,98.179,13.928,154.826,13.928,154.826h192.6s30.344-183.7-2.238-224.865-74.215-7.565-71.61-39.98-7.816-89.712-7.816-89.712Z" transform="translate(-83.576 87.191)" fill="#e5b5b7"/>
        <path id="Path_11" data-name="Path 11" d="M292.327,287.891s-7.3,48.263-54.041,9.135c0,0-1.136-30.461-1.136-32.7s55.912,2.789,56.212,4.175S293.83,285.4,292.327,287.891Z" transform="translate(-51.788 105.651)" fill="#ca6e70"/>
        <path id="Path_12" data-name="Path 12" d="M252.967,302.618s22.812,61.272,67,49.115c30.611-8.35,16.4-53.523,23.8-52.739s31.73-2.755,55.761,20.224,25.885,229.491,18.37,229.491-212.407.7-218.77,0-17.836-197.761-8.9-215.563S186.735,312.788,252.967,302.618Z" transform="translate(-85.424 129.25)" fill="#3e2d4a"/>
        <path id="Path_13" data-name="Path 13" d="M282.946,238s-4.058-13.56-12.458-12.158-6.363,26.72,5.611,28.223S283.513,239.635,282.946,238Z" transform="translate(-32.871 80.176)" fill="#e5b5b7"/>
        <path id="Path_14" data-name="Path 14" d="M216.656,232.576s50.9-42.084,74.732-19.906,58.584,104.926-3.958,117.484C241.155,339.456,186.947,251.815,216.656,232.576Z" transform="translate(-71.207 67.095)" fill="#e5b5b7"/>
        <path id="Path_15" data-name="Path 15" d="M266.656,258.941a112.007,112.007,0,0,1-10.788,4.893l-.618-1.536c5.494-2.238,11.69-5.16,12.909-6.246-1.069-1.67-8.934-8.584-16.3-14.546l1.052-1.286c17.518,14.145,17.117,15.631,16.984,16.2S268.477,257.939,266.656,258.941Z" transform="translate(-41.932 89.878)" fill="#ca6e70"/>
        <path id="Path_16" data-name="Path 16" d="M225.214,264.991s-8.868-23.48,21.944-38.727c36.473-18.053,52.037-6.964,63.794,17.836,7.866,16.583,9.2-8.35-14.93-31.162-28.056-26.5-72.294-12.375-85.988,6.5-17.017,23.38-10.4,66.282,11.807,76.987S224.629,275.245,225.214,264.991Z" transform="translate(-76.391 61.817)" fill="#3e2d4a"/>
        <path id="Path_17" data-name="Path 17" d="M227.618,261.09s-7.381-12.091-15.147-8.584.685,27.522,12.625,25.852S228.587,262.526,227.618,261.09Z" transform="translate(-70.329 97.682)" fill="#e5b5b7"/>
        <ellipse id="Ellipse_1" data-name="Ellipse 1" cx="3.741" cy="5.294" rx="3.741" ry="5.294" transform="translate(183.685 339.423) rotate(-32.57)" fill="#3e2d4a"/>
        <ellipse id="Ellipse_2" data-name="Ellipse 2" cx="3.741" cy="5.294" rx="3.741" ry="5.294" transform="translate(218.708 318.214) rotate(-29.69)" fill="#3e2d4a"/>
        <path id="Path_18" data-name="Path 18" d="M225,273.183l-.718-1.5a1.67,1.67,0,0,0,.969-1.586c.334-3.624-4.476-11.022-8.166-13.677-1.052-.768-1.887-1-2.522-.735-1.035.451-1.5,2.288-1.586,2.906l-1.67-.217c0-.351.518-3.34,2.605-4.225a4.192,4.192,0,0,1,4.158.9c3.774,2.739,9.252,10.638,8.851,15.2A3.34,3.34,0,0,1,225,273.183Z" transform="translate(-69.1 99.066)" fill="#ca6e70"/>
        <circle id="Ellipse_3" data-name="Ellipse 3" cx="7.983" cy="7.983" r="7.983" transform="translate(178.899 353.127)" fill="#c05c5d" opacity="0.38"/>
        <circle id="Ellipse_4" data-name="Ellipse 4" cx="7.983" cy="7.983" r="7.983" transform="translate(228.532 332.219)" fill="#c05c5d" opacity="0.38"/>
        <path id="Path_19" data-name="Path 19" d="M243.407,240.437c.868,2.422-3.206,1.152-7.164,2.555s-6.3,5.01-7.164,2.572,1.67-5.528,5.595-6.947S242.555,238.049,243.407,240.437Z" transform="translate(-57.31 88.342)" fill="#3e2d4a"/>
        <path id="Path_20" data-name="Path 20" d="M265.588,225.64c1.82,1.82-2.4,2.421-5.377,5.394s-3.557,7.2-5.377,5.394-.885-5.695,2.087-8.684S263.767,223.836,265.588,225.64Z" transform="translate(-40.563 79.492)" fill="#3e2d4a"/>
        <path id="Path_21" data-name="Path 21" d="M229.538,218.87s-14.145,10.387-8.517,25.05c2.939,7.632,22.261,18.687,3.808,33.918C224.828,277.771,191.963,240.68,229.538,218.87Z" transform="translate(-68.958 75.574)" fill="#3e2d4a"/>
        <path id="Path_22" data-name="Path 22" d="M247.38,259.071s20.407,10.822,24.2-3.591" transform="translate(-44.934 100.102)" fill="#e5b5b7"/>
        <path id="Path_23" data-name="Path 23" d="M261.569,263.9c-6.78,0-14.028-3.808-14.429-4.008l.785-1.47c.117,0,11.406,5.962,18.286,2.939a8.35,8.35,0,0,0,4.709-6.012l1.67.434a10.02,10.02,0,0,1-5.661,7.114,13.194,13.194,0,0,1-5.361,1Z" transform="translate(-45.094 100.015)" fill="#ca6e70"/>
        <path id="Path_24" data-name="Path 24" d="M293.33,389.361s77.421-4.008,108.55-72.645,20.541-129.442,34.235-148.162,5.093,28.073,5.093,28.073,7.632-35.421,11.423-30.06,3.808,30.06,3.808,30.06,8.016-36.74,11.306-21.944,10.638,135.27-31.63,207.714-112.174,79.292-112.174,79.292S293.831,408.332,293.33,389.361Z" transform="translate(-14.147 38.9)" fill="#e5b5b7"/>
        <path id="Path_25" data-name="Path 25" d="M238.388,309.77S97.006,372.779,131.608,476.219c30.427,90.948,116.75,19.2,123.58,15.631s-20.04-73.246-20.04-73.246-37.441,30.494-42.969,20.975,40.08-37.976,40.08-37.976S231.106,327.038,238.388,309.77Z" transform="translate(-126.155 136.477)" fill="#e5b5b7"/>
        <path id="Path_26" data-name="Path 26" d="M388.72,208.362s-7.548-32.9-12.792-34.1,1.954,40.23,1.954,40.23" transform="translate(39.911 45.668)" fill="#e5b5b7"/>
        <path id="Path_27" data-name="Path 27" d="M377.39,214.956c-1.069-6.179-6.263-37.191-2.538-40.731a1.67,1.67,0,0,1,1.586-.434c5.478,1.253,12.141,29.141,13.36,34.719l-1.67.367c-3.09-13.444-8.9-32.715-12.158-33.4-1.987.919-.635,18.537,2.973,39.262Z" transform="translate(39.584 45.336)" fill="#ca6e70"/>
        <path id="Path_28" data-name="Path 28" d="M231.38,347.14s18,11.573,18.37,23.146" transform="translate(-55.654 161.514)" fill="#e5b5b7"/>
        <path id="Path_29" data-name="Path 29" d="M249.163,370.581c-.418-11.005-17.869-22.361-18.053-22.478l.9-1.4c.751.484,18.37,11.94,18.821,23.814Z" transform="translate(-55.834 161.22)" fill="#ca6e70"/>
        <path id="Path_30" data-name="Path 30" d="M275.173,245.054c-3.808-7.281-5.01-12.442-3.724-15.347a3.106,3.106,0,0,1,2-1.837l.367,1.67-.184-.818.2.818a1.67,1.67,0,0,0-.9,1c-.584,1.386-.868,5.01,3.707,13.794Z" transform="translate(-29.14 81.604)" fill="#ca6e70"/>
        <path id="Path_31" data-name="Path 31" d="M144.606,345.84s-5.912,53.123,29.943,80.16l17.468-25.584Z" transform="translate(-114.036 160.643)" fill="#c05c5d" opacity="0.38"/>
        <path id="Path_32" data-name="Path 32" d="M143,368.567S182.5,426,192.8,426.483s37.241-20.725,46.059-28.958,4.342-91.165,0-90.714S174.162,323.527,143,368.567Z" transform="translate(-114.868 134.493)" fill="#3e2d4a"/>
        <path id="Path_33" data-name="Path 33" d="M293.028,396.842s-16.349-9.268-26.2-31.446c-9.085-20.424-31.2-56.312-70.023-35.621s-20.875,57.749-2.321,72.278c16.349,12.792,58.149,19.906,69.99,31.229Z" transform="translate(-94.272 145.714)" fill="#e7b780"/>
        <path id="Path_34" data-name="Path 34" d="M254.8,361.081s-35.07,41.616-33.834,43.169,23.38,21.71,26.854,21.042,33.784-40.9,33.834-43.169S257.653,357.691,254.8,361.081Z" transform="translate(-62.655 170.619)" fill="#fff"/>
        <path id="Path_35" data-name="Path 35" d="M251.233,375.038s-16.616,18.6-15.481,19.739,19.873,17.168,22.161,17.335,15.848-18.37,15.481-19.739S252.569,373.518,251.233,375.038Z" transform="translate(-52.761 180.143)" fill="#fff"/>
        <path id="Path_36" data-name="Path 36" d="M253.775,406.86l-1.536.651c-1.486-3.524-14.329-8.934-26.72-14.178-16.082-6.8-32.715-13.811-34.218-20.04-.785-3.156.418-4.609,1.67-5.26a8.868,8.868,0,0,1,6.413-.117,17.318,17.318,0,0,1,.568-5.01,6.179,6.179,0,0,1,4.693-4.81,8.351,8.351,0,0,1,2.822-.1c-.15-.418-.284-.835-.418-1.269a3.757,3.757,0,0,1,1.035-4.192c1.787-1.67,5.094-2.2,8.45-1.987a9.168,9.168,0,0,1,.785-7.515,2.689,2.689,0,0,1,2.138-1.219c7.665-.551,32.832,27.121,47.161,43.67l.768.868-1.253,1.119-.768-.885c-23.681-27.355-40.8-43.42-45.791-43.119a.969.969,0,0,0-.835.468,7.749,7.749,0,0,0-.418,6.8,18.374,18.374,0,0,1,4.76,1.319c2.973,1.319,4.609,3.34,4.609,5.611,0,1.971-.835,2.689-1.536,2.922-1.954.685-4.592-1.553-6.413-3.874a18.737,18.737,0,0,1-2.605-4.442c-3.34-.317-6.5.184-7.932,1.5a2.1,2.1,0,0,0-.584,2.438c.25.752.5,1.486.751,2.188a15.581,15.581,0,0,1,7.148,4.626c1.987,2.338,2.605,4.793,1.67,6.914-.7,1.67-1.67,2.572-2.722,2.538-2.472-.084-4.743-4.843-7.465-12.675a7.316,7.316,0,0,0-3.056,0,4.526,4.526,0,0,0-3.44,3.591,15.581,15.581,0,0,0-.484,5.177,20.041,20.041,0,0,1,6.83,4.075c2.271,2.254,1.87,3.924,1.419,4.726a3.173,3.173,0,0,1-4.225,1.57c-2.371-.952-4.876-4.509-5.561-9.118a8.133,8.133,0,0,0-5.761-.217c-.384.2-1.453.8-.8,3.34,1.319,5.377,18.286,12.542,33.25,18.871C240.031,397.658,252.038,402.718,253.775,406.86Zm-52.521-36.473c.735,3.54,2.605,6.212,4.375,6.931a1.57,1.57,0,0,0,2.154-.852c.5-.885-.5-2.087-1.136-2.722a17.5,17.5,0,0,0-5.394-3.357Zm8.717-10.02c2.455,6.847,4.309,10.354,5.511,10.387.25,0,.668-.384,1.136-1.5.835-2.037-.568-4.142-1.47-5.21a13.494,13.494,0,0,0-5.177-3.641Zm9.018-7.866a17.283,17.283,0,0,0,1.971,3.14c2.071,2.622,3.924,3.524,4.542,3.34.267-.084.417-.6.417-1.353,0-2.037-1.971-3.34-3.624-4.075a15.911,15.911,0,0,0-3.307-1.019Z" transform="translate(-82.674 157.94)" fill="#fff"/>
        <path id="Path_37" data-name="Path 37" d="M271.782,439.882s1.854-18.7,18.12-36.74c15.03-16.583,38.827-51.336,4.175-78.49s-61.256,4.325-67,27.188c-5.01,20.124,5.377,61.205-.184,76.62Z" transform="translate(-59.482 139.414)" fill="#e7b780"/>
        <path id="Path_38" data-name="Path 38" d="M282.429,388.64s-52.271-15.2-53.189-13.443-10.437,30.227-8.35,33.083,51.085,14.312,53.189,13.36S286.688,389.859,282.429,388.64Z" transform="translate(-62.882 180.218)" fill="#fff"/>
        <path id="Path_39" data-name="Path 39" d="M258.838,394.894s-23.731-7.649-24.332-6.146-7.615,25.05-6.864,27.238,23.246,7.031,24.315,6.146S260.775,395.512,258.838,394.894Z" transform="translate(-58.195 189.261)" fill="#fff"/>
        <path id="Path_40" data-name="Path 40" d="M234.879,408.638,233.66,407.5c2.622-2.772,2.371-16.7,2.121-30.194-.317-17.468-.635-35.5,4.409-39.412,2.572-1.987,4.375-1.486,5.461-.668a8.951,8.951,0,0,1,2.705,5.828,17.435,17.435,0,0,1,4.86-1.536,6.112,6.112,0,0,1,6.279,2.338,8.2,8.2,0,0,1,1.253,2.538l.985-.9a3.791,3.791,0,0,1,4.259-.752c2.2.985,4.075,3.774,5.244,6.931a9.085,9.085,0,0,1,7.2-2.321,2.672,2.672,0,0,1,1.971,1.436c3.607,6.8-11.49,41.032-20.808,60.838l-.484,1.052-1.52-.685.5-1.086c15.4-32.732,23.2-54.91,20.842-59.335a1,1,0,0,0-.768-.585,7.832,7.832,0,0,0-6.379,2.4,18.369,18.369,0,0,1,.718,4.877c0,3.256-1.152,5.561-3.34,6.48-1.8.8-2.789.334-3.34-.217-1.42-1.5-.434-4.826.935-7.432a19.435,19.435,0,0,1,3.006-4.192c-1.035-3.123-2.789-5.845-4.592-6.68a2.087,2.087,0,0,0-2.455.451l-1.67,1.57a15.564,15.564,0,0,1-1.319,8.35c-1.336,2.756-3.34,4.325-5.628,4.392-1.854,0-3.006-.434-3.423-1.47-.919-2.288,2.5-6.3,8.567-11.957a7.115,7.115,0,0,0-1.186-2.822,4.492,4.492,0,0,0-4.676-1.67,15.03,15.03,0,0,0-4.926,1.67,20.206,20.206,0,0,1-.952,7.882c-1.152,2.989-2.839,3.34-3.741,3.223a3.19,3.19,0,0,1-3.156-3.24c0-2.555,2.154-6.279,6.079-8.767a8.049,8.049,0,0,0-2.138-5.361c-.317-.267-1.319-1-3.44.635-4.375,3.34-4.041,21.81-3.757,38.059C237.718,392.439,237.952,405.364,234.879,408.638Zm12.041-62.775c-2.923,2.087-4.609,4.893-4.542,6.8,0,1,.568,1.52,1.67,1.67s1.67-1.3,2.021-2.138a17,17,0,0,0,.852-6.329Zm12.675,3.891c-5.277,5.01-7.715,8.15-7.265,9.268,0,.234.618.451,1.82.417a5.344,5.344,0,0,0,4.175-3.457A13.594,13.594,0,0,0,259.6,349.754Zm10.838,5.01a18.372,18.372,0,0,0-2.071,3.073c-1.553,2.956-1.67,5.01-1.186,5.511.184.2.7.134,1.386-.167,1.887-.835,2.271-3.156,2.271-5.01a16.7,16.7,0,0,0-.4-3.357Z" transform="translate(-54.126 154.392)" fill="#fff"/>
        <path id="Path_41" data-name="Path 41" d="M174.93,414.423s16.984,8.049,28.39,29.425c10.571,19.723,35.27,53.874,72.461,30.377s16.566-59.118-3.023-72.244c-17.234-11.556-59.435-15.564-72.077-26Z" transform="translate(-93.475 180.837)" fill="#e7b780"/>
        <path id="Path_42" data-name="Path 42" d="M190.757,431.082s31.914-44.088,30.561-45.541-24.933-20.04-28.39-19-30.695,43.27-30.578,45.541S188.152,434.689,190.757,431.082Z" transform="translate(-101.904 174.482)" fill="#fff"/>
        <path id="Path_43" data-name="Path 43" d="M183.919,406.069s15.2-19.773,13.995-20.825-21.092-15.648-23.38-15.665-14.445,19.522-13.978,20.842S182.7,407.689,183.919,406.069Z" transform="translate(-103.115 176.549)" fill="#fff"/>
        <path id="Path_44" data-name="Path 44" d="M195.277,384.782l1.486-.751c1.67,3.34,15.03,7.849,27.722,12.158,16.533,5.594,33.634,11.373,35.6,17.435,1.019,3.09,0,4.626-1.2,5.361a8.885,8.885,0,0,1-6.4.6,17.5,17.5,0,0,1-.2,5.01,6.062,6.062,0,0,1-4.309,5.127,8.686,8.686,0,0,1-2.806.334l.5,1.219a3.774,3.774,0,0,1-.718,4.259c-1.67,1.67-5.01,2.572-8.35,2.605a9.135,9.135,0,0,1-.217,7.565,2.672,2.672,0,0,1-2.037,1.369c-7.6,1.119-34.753-24.633-50.267-40.08l-.818-.818,1.169-1.2.835.835c25.635,25.534,43.888,40.331,48.847,39.612a.986.986,0,0,0,.8-.518,7.816,7.816,0,0,0-.1-6.814,18.724,18.724,0,0,1-4.843-.969c-3.056-1.1-4.843-2.973-5.01-5.26-.15-1.971.635-2.722,1.319-3.023,1.9-.818,4.693,1.219,6.68,3.34a18.707,18.707,0,0,1,2.922,4.242c3.34,0,6.463-.651,7.8-2.087a2.071,2.071,0,0,0,.4-2.472c-.3-.735-.6-1.436-.9-2.121a15.664,15.664,0,0,1-7.432-4.008,6.68,6.68,0,0,1-2.238-6.78c.568-1.77,1.436-2.689,2.538-2.739,2.455-.1,5.01,4.476,8.35,12.108a7.431,7.431,0,0,0,3.073-.167,4.526,4.526,0,0,0,3.156-3.841,15.664,15.664,0,0,0,0-5.21,19.908,19.908,0,0,1-7.1-3.557c-2.438-2.071-2.154-3.774-1.77-4.592a3.19,3.19,0,0,1,4.108-1.887c2.438.785,5.194,4.142,6.212,8.684a8.149,8.149,0,0,0,5.762-.2c.367-.217,1.386-.919.551-3.457-1.67-5.277-19.155-11.172-34.552-16.366C209.673,392.948,197.331,388.79,195.277,384.782Zm55.11,32.5c-.985-3.474-3.056-6-4.876-6.58a1.553,1.553,0,0,0-2.071,1c-.434.918.651,2.037,1.336,2.622a17.286,17.286,0,0,0,5.561,2.956ZM242.438,427.9c-2.956-6.68-5.01-10.02-6.262-10.02-.25,0-.651.434-1.019,1.586-.685,2.1.868,4.092,1.854,5.01a13.7,13.7,0,0,0,5.377,3.424Zm-8.35,8.484a19.319,19.319,0,0,0-2.2-2.973c-2.255-2.471-4.192-3.24-4.776-2.973-.251.1-.384.618-.317,1.369.15,2.037,2.2,3.19,3.908,3.808a15.686,15.686,0,0,0,3.29.768Z" transform="translate(-87.887 186.231)" fill="#fff"/>
        <path id="Path_45" data-name="Path 45" d="M176.79,430.717s100.718-90.347,125.5-90.931-15.113,16.4-15.113,16.4,25.351-11.941,28.173-4.442S296.98,372.4,296.98,372.4s23.58-10.02,24.031-3.257c.134,2-10.788,7.281-19.923,20.407-21.91,31.53-73.63,96.993-108.85,106.178C142.472,508.823,154.228,450.373,176.79,430.717Z" transform="translate(-105.238 156.577)" fill="#e5b5b7"/>
        <path id="Path_46" data-name="Path 46" d="M261.995,222.34h-1.67c.468-11.957-2.087-20.491-7.615-25.367a19,19,0,0,0-14.445-4.242l-.284-1.67a20.424,20.424,0,0,1,15.832,4.626C259.723,200.864,262.5,209.848,261.995,222.34Z" transform="translate(-51.232 56.824)" fill="#34253d"/>
        <path id="Path_47" data-name="Path 47" d="M260.808,219.151c-5.127-12.492-11.874-19.589-20.04-21.109-13.226-2.472-25.952,10.771-26.069,10.905L213.48,207.8c.534-.568,13.46-14.011,27.588-11.389,8.734,1.67,15.882,9.068,21.259,22.111Z" transform="translate(-67.647 60.296)" fill="#34253d"/>
        <path id="Path_48" data-name="Path 48" d="M200.132,222.332l-1.052-1.286c.351-.3,36.022-28.724,57.732-5.645l-1.219,1.152C234.935,194.577,200.466,222.065,200.132,222.332Z" transform="translate(-77.295 67.202)" fill="#34253d"/>
        <path id="Path_49" data-name="Path 49" d="M204.745,259.172l-.635-1.553c19.606-8.1,16.917-24.916,16.7-25.635l1.67-.284C222.58,231.884,225.636,250.571,204.745,259.172Z" transform="translate(-73.924 84.17)" fill="#34253d"/>
        <path id="Path_50" data-name="Path 50" d="M198.726,243.515l-1.486-.735c.4-.8,9.936-19.706,24-23.814a18.737,18.737,0,0,1,15.431,2.221l-.852,1.436a17.151,17.151,0,0,0-14.111-2.054C208.346,224.543,198.827,243.331,198.726,243.515Z" transform="translate(-78.527 75.127)" fill="#34253d"/>
        <path id="Path_51" data-name="Path 51" d="M258.562,217.843l-.8-1.47c.367-.2,9.018-5.16,4.025-16.082l1.52-.7C268.949,211.965,258.662,217.776,258.562,217.843Z" transform="translate(-37.979 62.656)" fill="#34253d"/>
        <path id="Path_52" data-name="Path 52" d="M230.117,290.575l-1.536-.635c2.538-6.229,1-13.46-1.286-18.153a10.521,10.521,0,0,0-2.154-3.223,2.042,2.042,0,0,0,0,.351c0,6.146-3.34,16.9-3.424,17.351l-1.586-.5c0-.1,3.34-10.938,3.34-16.834,0-1.136.317-1.854.952-2.121s1.319,0,2.071.718C229.031,270.1,234.041,281.006,230.117,290.575Z" transform="translate(-63.191 107.626)" fill="#34253d"/>
        <path id="Path_53" data-name="Path 53" d="M349.771,279.08s56.2-.7,64.211-5.01c0,0-8.851,31.73-29.242,54.726C384.74,328.746,349.5,293.475,349.771,279.08Z" transform="translate(23.667 112.558)" fill="#c05c5d" opacity="0.38"/>
        <path id="Path_54" data-name="Path 54" d="M280.85,317.164s72.662-15.965,94.2-42.652c13.761-17.034,60.688,54.041,58.533,65.414s-90.1,69.255-100.116,66.466S280.85,328.62,280.85,317.164Z" transform="translate(-22.509 111.097)" fill="#3e2d4a"/>
        <path id="Path_55" data-name="Path 55" d="M337.721,370.133c-4.492-46.192-36.957-66.8-37.291-66.984l.885-1.42c.334.2,33.5,21.226,38.076,68.253Z" transform="translate(-9.39 131.09)" fill="#34253d"/>
        <path id="Path_56" data-name="Path 56" d="M524.349,152.812s16.9,10.521,11.105,31.112-22.679,10.688-19.572,8.35,5.461,3.123,1.336,8.717-30.394,11.373-37.291-17.785S495.341,153,499.333,156.67s-8.818,4.709-4.359-5.528S514.529,141.456,524.349,152.812Z" transform="translate(109.992 25.316)" fill="#fff"/>
        <path id="Path_57" data-name="Path 57" d="M546.182,197.3a17.451,17.451,0,0,1-5.761,19.84c-10.488,8.35-15.431-2.889-12.993-2.939s1.67,3.59-2.522,4.91-19.572-5.361-12.391-22.679,18.888-9.669,19.556-6.346-6.2-.835-.184-4.409S545.4,187.963,546.182,197.3Z" transform="translate(131.445 52.623)" fill="#fff"/>
        <path id="Path_58" data-name="Path 58" d="M323.842,228.859a14.662,14.662,0,0,1-16.7,5.093c-10.7-3.557-5.01-12.208-3.925-10.521s-1.77,2.806-4.609.5-5.244-16.282,10.271-19.188,15.514,8.851,13.477,10.855-2.254-4.743,3.023-2.154S330.054,224.066,323.842,228.859Z" transform="translate(-12.01 65.802)" fill="#fff"/>
        <path id="Path_59" data-name="Path 59" d="M306.02,233.144a9.636,9.636,0,0,1,3.841,10.788c-2,7.131-7.849,3.707-6.78,2.889s1.887,1.085.468,3.023-10.538,3.941-12.926-6.162,5.344-10.471,6.68-9.2-3.039,1.67-1.5-1.92S302.646,229.2,306.02,233.144Z" transform="translate(-16.266 83.043)" fill="#fff"/>
        <path id="Path_60" data-name="Path 60" d="M385.163,190.47l.818,1.453a52.652,52.652,0,0,0-6.83,4.542l-1.035-1.3a53.167,53.167,0,0,1,7.047-4.693Zm-12.876,11.005,1.42.885a13.444,13.444,0,0,0-2.1,6.413v1.035h-1.67V208.64a15.031,15.031,0,0,1,2.421-7.164Zm1.286,16.032a55.613,55.613,0,0,0,4.058,7.164l-1.4.9a56.781,56.781,0,0,1-4.175-7.365Zm8.667,14.111a71.823,71.823,0,0,1,4.308,7.281l-1.5.735a76.2,76.2,0,0,0-4.192-7.1Zm7.148,15.347a19.119,19.119,0,0,1,.317,2.872c0,.768,0,1.52,0,2.221a21.043,21.043,0,0,1-.518,3.524l-1.67-.384a18.022,18.022,0,0,0,.468-3.24v-2.054a18.365,18.365,0,0,0-.284-2.655Zm-32.5-1.42,1.086,1.269a3.14,3.14,0,0,0-.952,2.3,9.417,9.417,0,0,0,.217,2.355,17.591,17.591,0,0,0,.635,2.321l-1.587.551a18.378,18.378,0,0,1-.685-2.538,10.489,10.489,0,0,1-.251-2.789,4.776,4.776,0,0,1,1.6-3.474Zm8.818.718a27.905,27.905,0,0,1,6.68,5.327l-1.219,1.152a26,26,0,0,0-6.313-5.01Zm11.69,12.275a31.728,31.728,0,0,1,2.438,5.828,12.674,12.674,0,0,0,3.891-2.438l1.136,1.236a14.614,14.614,0,0,1-4.576,2.822,2.209,2.209,0,0,0,.134.551l-1.67.367-.1-.4a13.967,13.967,0,0,1-1.67.351l-.267-1.67a11.381,11.381,0,0,0,1.536-.317,30.375,30.375,0,0,0-2.321-5.561Zm-15.314,1.9a17.569,17.569,0,0,0,6.78,4.075l-.518,1.586a19.506,19.506,0,0,1-7.432-4.459Zm-33.166,11.072a7.782,7.782,0,0,1,4.759,2.471l-1.169,1.2c-2.321-2.238-4.609-2.689-5.928-.868l-1.353-.985A4.142,4.142,0,0,1,328.918,271.515Zm51.469,3.524h.835a34.051,34.051,0,0,1-1.586,8.35l-1.587-.518a32.163,32.163,0,0,0,1.5-7.9Zm-42.117,6.279a25.652,25.652,0,0,1,1.67,8.35h-1.67a24.23,24.23,0,0,0-1.553-7.882Zm-13.076.534a29.676,29.676,0,0,0,1.67,7.932l-1.57.534a30.443,30.443,0,0,1-1.67-8.35Zm49.5,8.55,1.453.835c-.7,1.219-1.486,2.422-2.3,3.624s-1.67,2.288-2.522,3.34l-1.3-1.035a38.416,38.416,0,0,0,2.455-3.34c.785-1.219,1.553-2.271,2.221-3.457Zm-44.338,6.68a32.45,32.45,0,0,0,4.709,5.828,27.626,27.626,0,0,0,2.154-5.177l1.67.468a29.24,29.24,0,0,1-3.641,7.749l-1.4-.9c.15-.217.284-.434.418-.651a34.384,34.384,0,0,1-5.244-6.43Zm34.035,6,1.1,1.253a30.68,30.68,0,0,1-7.131,4.726l-.7-1.52a28.658,28.658,0,0,0,6.73-4.459Zm-22.211,4.743a17.819,17.819,0,0,0,7.749,1.587v1.67a19.723,19.723,0,0,1-8.467-1.67Zm-13.644,3.44,1.136,1.219a28.827,28.827,0,0,1-7.031,4.893l-.735-1.5a27.085,27.085,0,0,0,6.63-4.609Zm-37.542.9a39.843,39.843,0,0,0,7.265,3.707l-.618,1.553a39.645,39.645,0,0,1-7.6-3.891Zm23.213,6.012.217,1.67a30.792,30.792,0,0,1-8.567-.15l.267-1.67A29.257,29.257,0,0,0,314.2,318.175Z" transform="translate(-16.351 56.546)" fill="#fff"/>
        <path id="Path_62" data-name="Path 62" d="M192.886,277s-3.173,10.721-4.375,11.122-5.511,2.4-5.511,2.4l7.432,4.375,4.108,10.3s2.5-10.955,3.641-12.024c1.854-1.77,7.331-3.707,7.331-3.707s-8.083-1.5-9.268-3.223S192.886,277,192.886,277Z" transform="translate(-88.068 114.521)" fill="#fff"/>
        <path id="Path_63" data-name="Path 63" d="M289.992,149.582s24.582-20.508,53.106-1.269,4.893,40.08,2.872,34.118,7.515-6.763,13.995,2.355S362,236.94,313.99,232.765s-38.41-38.777-30.728-43,2.739,15.815-10.655,3.858S267.714,158.751,289.992,149.582Z" transform="translate(-32.319 22.784)" fill="#fff"/>
        <path id="Path_64" data-name="Path 64" d="M303.724,200.952a16.7,16.7,0,0,1-5.361-.835c-10.02-3.34-10.788-13.844-10.822-14.3a3.178,3.178,0,0,1,6.346-.367c0,.267.534,6.68,6.429,8.617a8.6,8.6,0,0,0,8.45-1.286,5.478,5.478,0,0,0,1.536-5.578c-1.052-4.659-3.056-5.01-7.448-6.029a23.029,23.029,0,0,1-10.972-4.709,11.69,11.69,0,0,1-3.657-13.644,13.978,13.978,0,0,1,13.36-8.834c10.488.417,14.429,10.655,14.6,11.089a3.176,3.176,0,1,1-5.945,2.238c-.117-.3-2.689-6.68-8.918-6.964a7.665,7.665,0,0,0-7.2,4.793,5.394,5.394,0,0,0,1.87,6.48,16.933,16.933,0,0,0,8.166,3.34c4.626.985,10.387,2.2,12.325,10.855a11.79,11.79,0,0,1-3.457,11.69,13.861,13.861,0,0,1-9.3,3.44Z" transform="translate(-18.145 32.102)" fill="#e7b880"/>
        <path id="Path_65" data-name="Path 65" d="M298.486,191.838a3.173,3.173,0,0,1-3.206-3.14v-7.281a3.19,3.19,0,0,1,6.363,0v7.3A3.173,3.173,0,0,1,298.486,191.838Z" transform="translate(-12.841 48.498)" fill="#e7b880"/>
        <path id="Path_66" data-name="Path 66" d="M298.34,163.24A3.156,3.156,0,0,1,295,160.1v-7.3a3.173,3.173,0,0,1,6.346,0v7.281a3.173,3.173,0,0,1-3.006,3.156Z" transform="translate(-13.028 29.183)" fill="#e7b880"/>
        <path id="Path_67" data-name="Path 67" d="M451.853,196.76s-38.41,16.7-39.462,41.2,14.429,25.234,10.02,43.236-5.01,18.921,3.908,25.133,18.888,1.1,20.858,13.126,11.824,10.905,21.627,0S427.3,242.969,451.853,196.76Z" transform="translate(65.589 60.76)" fill="#3e2d4a"/>
        <path id="Path_68" data-name="Path 68" d="M470.706,245.328s18.821,70.29-.752,92.4-82.448,14.579-70.724,98.179,13.944,154.859,13.944,154.859h192.6s30.344-183.7-2.238-224.865-74.215-7.565-71.61-39.98-7.816-89.712-7.816-89.712Z" transform="translate(55.837 87.191)" fill="#e5b5b7"/>
        <path id="Path_69" data-name="Path 69" d="M500.46,301.329s-7.348,34.786-54.091-4.342c0,0-1.119-30.461-1.119-32.7s56.2,4.175,56.479,5.578S501.963,298.857,500.46,301.329Z" transform="translate(87.639 105.689)" fill="#ca6e70"/>
        <path id="Path_70" data-name="Path 70" d="M461.056,302.618s22.812,61.272,67,49.115c30.611-8.35,16.4-53.523,23.8-52.739s31.73-2.755,55.761,20.224,25.885,229.491,18.37,229.491-212.424.7-218.77,0-17.836-197.761-8.9-215.563S394.824,312.788,461.056,302.618Z" transform="translate(53.997 129.25)" fill="#3e2d4a"/>
        <path id="Path_71" data-name="Path 71" d="M503.974,241.062s-1-14.111-9.519-14.579-12.024,24.783-.651,28.774S504.125,242.8,503.974,241.062Z" transform="translate(115.337 80.67)" fill="#e5b5b7"/>
        <path id="Path_72" data-name="Path 72" d="M443.31,216.61s58.834-30.06,77.288-3.34,20.558,127.488-26.469,123.58S410.144,228.885,443.31,216.61Z" transform="translate(77.822 64.407)" fill="#e5b5b7"/>
        <path id="Path_73" data-name="Path 73" d="M441.361,224.577s-8.834,59.018,27.321,70.14c17.535,5.361,9.419-26.052,34.8-24.265,17.986,1.269,16.216,20.825,24.649,5.594S517.714,214.991,524.16,219s37.642,87.892-6.43,103.874c-41.583,15.03-71.109-10.855-81.629-50.367S432.276,215.409,441.361,224.577Z" transform="translate(77.917 75.495)" fill="#3e2d4a"/>
        <path id="Path_74" data-name="Path 74" d="M477.347,256.926a114.776,114.776,0,0,1-11.807-.9l.184-1.67c5.9.685,12.775,1.152,14.329.768-.1-2.037-3.691-11.84-7.264-20.608l1.536-.635c8.534,20.858,7.465,21.977,7.064,22.395A7.365,7.365,0,0,1,477.347,256.926Z" transform="translate(101.233 85.63)" fill="#ca6e70"/>
        <path id="Path_75" data-name="Path 75" d="M445.916,250.963s-3.557-24.85,29.826-33.033c39.512-9.686,50.5,14.6,56.6,41.349,4.091,17.9,12.608-16.249-6-43.737-21.71-31.98-67.885-27.772-85.354-12.341-21.71,19.205-24.549,62.441-5.194,77.722S443.143,260.832,445.916,250.963Z" transform="translate(72.628 57.209)" fill="#3e2d4a"/>
        <path id="Path_76" data-name="Path 76" d="M442.069,254.148s-4.576-13.36-12.909-11.69-5.311,27.021,6.68,27.989S442.721,255.768,442.069,254.148Z" transform="translate(73.702 91.281)" fill="#e5b5b7"/>
        <ellipse id="Ellipse_5" data-name="Ellipse 5" cx="3.741" cy="5.294" rx="3.741" ry="5.294" transform="matrix(0.94, -0.343, 0.343, 0.94, 546.852, 324.358)" fill="#3e2d4a"/>
        <ellipse id="Ellipse_6" data-name="Ellipse 6" cx="3.741" cy="5.294" rx="3.741" ry="5.294" transform="translate(582.877 315.822) rotate(-17.15)" fill="#3e2d4a"/>
        <path id="Path_77" data-name="Path 77" d="M436.514,265.55l-.367-1.67a1.67,1.67,0,0,0,1.286-1.336c1.119-3.474-1.971-11.69-5.01-15.13-.852-.969-1.67-1.386-2.3-1.269-1.119.217-1.971,1.921-2.188,2.488l-1.57-.568c.117-.317,1.219-3.14,3.457-3.557a4.175,4.175,0,0,1,3.858,1.787c3.089,3.49,6.68,12.391,5.344,16.7A3.44,3.44,0,0,1,436.514,265.55Z" transform="translate(74.983 92.737)" fill="#ca6e70"/>
        <circle id="Ellipse_7" data-name="Ellipse 7" cx="7.983" cy="7.983" r="7.983" transform="translate(540.27 341.955)" fill="#c05c5d" opacity="0.38"/>
        <circle id="Ellipse_8" data-name="Ellipse 8" cx="7.983" cy="7.983" r="7.983" transform="translate(589.585 330.499)" fill="#c05c5d" opacity="0.38"/>
        <path id="Path_78" data-name="Path 78" d="M467.915,274.752s-7.047-17.8,7.916-21.71c12.826-3.34,16.7,9.9,16.55,18.053-.1,5.311-2.071,8.016-10.738,10.437S467.915,277.324,467.915,274.752Z" transform="translate(101.714 98.115)" fill="#e5b5b7"/>
        <path id="Path_79" data-name="Path 79" d="M478.9,269.32a3.608,3.608,0,0,1-1.186-.2c-6.179-1.987-9.352-9.5-9.485-9.82l1.536-.635s3.023,7.114,8.467,8.868a1.52,1.52,0,0,0,1.536-.184c1.987-1.67,2.054-8.634,1.67-12.675l1.67-.184c.117,1.169,1.069,11.473-2.255,14.145a2.939,2.939,0,0,1-1.954.685Z" transform="translate(103.036 99.439)" fill="#ca6e70"/>
        <path id="Path_80" data-name="Path 80" d="M462.276,231.578c1.152,2.288-3.056,1.52-6.8,3.34s-5.661,5.711-6.814,3.423.969-5.695,4.726-7.582S461.124,229.273,462.276,231.578Z" transform="translate(89.717 82.739)" fill="#3e2d4a"/>
        <path id="Path_81" data-name="Path 81" d="M487.9,227.763c.15,2.555-3.34.184-7.6.417s-7.448,2.989-7.6.434,3.14-4.843,7.331-5.01S487.749,225.191,487.9,227.763Z" transform="translate(106.028 78.738)" fill="#3e2d4a"/>
        <path id="Path_82" data-name="Path 82" d="M457.5,209.7s-16.065,7.064-13.744,22.545c1.219,8.1,17.669,23.079-3.641,33.951C440.112,266.2,416.08,222.843,457.5,209.7Z" transform="translate(79.551 69.43)" fill="#3e2d4a"/>
        <path id="Path_83" data-name="Path 83" d="M463.31,206.666s21.593-1.1,26.97,12.007c3.44,8.35,17.852,36.907,25.217,35.538C525.117,252.457,511.222,194.575,463.31,206.666Z" transform="translate(99.739 66.285)" fill="#3e2d4a"/>
        <path id="Path_84" data-name="Path 84" d="M471.384,550.336S446.417,340.1,450.124,302.157c0,0-35.254-2.939-50.868,65.414-8.634,37.859,0,170.056,7.515,179.024S471.384,550.336,471.384,550.336Z" transform="translate(54.408 131.364)" fill="#e7b780"/>
        <path id="Path_85" data-name="Path 85" d="M453.46,201.6s4.459-18.37,34.435-12.959,42.284,18.47,39.946,27.772,20.608,16.049,15.6,28.54-23.7,18.888-22.478,23.8-9.786-17.669-14.245-32.582S469.225,194.686,453.46,201.6Z" transform="translate(93.14 54.652)" fill="#3e2d4a"/>
        <path id="Path_86" data-name="Path 86" d="M506.85,418.5s78.072-16.049,105.911-58.183-68.72-153.206-66.5-203.423,10.02,1.019,17.819,12.692,38.894-22.428,46.76,23.5c6.546,38.594,103.623,155.31,35.721,225.45s-117.084,62.258-117.084,62.258S504.779,444.916,506.85,418.5Z" transform="translate(128.828 19.534)" fill="#e5b5b7"/>
        <path id="Path_87" data-name="Path 87" d="M503.94,300.54S516.682,510.96,515.112,547.3c0,0,42.351.334,48.229,0s-4.192-223.012-10.254-230.794S503.94,300.54,503.94,300.54Z" transform="translate(126.961 130.292)" fill="#e7b780"/>
        <path id="Path_88" data-name="Path 88" d="M713.9,521.6s-205.811,8.617-211.155,7.181-54.793-54.559-50.785-54.559h54.793s9.352-96.192,14.713-97.628,208.483-2.872,212.491,0S713.9,521.6,713.9,521.6Z" transform="translate(91.982 180.138)" fill="#fff"/>
        <path id="Path_89" data-name="Path 89" d="M493.855,472.8s-32.114-34.97-28.106-34.97h29.392Z" transform="translate(101.141 222.277)" fill="#3e2d4a"/>
        <path id="Path_90" data-name="Path 90" d="M369.771,359.38S332.581,396.771,333.416,459.4s60.12,80.995,100.2,72.645,68.186-49.482,79.876-40.4,20.04,11.89,24.165,12.425c2.171.284,18.854-6.546,17.3-9.319-17.168-30.895,8.016-5.427,18.37,8.617,3.758,5.127-3.524-56.68-47.278-55.01-28.958,1.1-79.258,47.779-110.988,27.739s-2.973-56.78-2.973-56.78Z" transform="translate(12.701 169.715)" fill="#e5b5b7"/>
        <circle id="Ellipse_9" data-name="Ellipse 9" cx="13.911" cy="13.911" r="13.911" transform="translate(690.286 616.069)" fill="#3e2d4a"/>
        <path id="Path_91" data-name="Path 91" d="M503.94,316.25s61.255-13.176,87.207-35.437,57.114,62.107,56,75.467S560.3,407.916,539.16,402.355,503.94,316.25,503.94,316.25Z" transform="translate(126.961 114.583)" fill="#e7b780"/>
        <path id="Path_92" data-name="Path 92" d="M545.08,163.065s11.005,24.549,15.03,25.434-3.073-29.826-3.073-29.826,3.991,21.86,8.851,25.852,1.336-28.774,1.336-28.774,1.319,24.783,7.515,28.774S579.6,163.6,579.6,163.6" transform="translate(154.525 33.283)" fill="#e5b5b7"/>
        <path id="Path_93" data-name="Path 93" d="M560.569,189.37a1.254,1.254,0,0,1-.351,0c-4.192-.935-13.727-21.71-15.6-25.918l1.52-.685c4.459,9.92,11.774,24.065,14.345,24.95.985-1.419-.267-10.838-2.288-20.975-1.019-4.208-1.67-7.532-1.67-7.866l1.67-.334c.418,1.787,1.069,4.709,1.67,8.083,1.67,6.93,4.225,15.18,6.83,17.3a.6.6,0,0,0,.234.15c1.253-.818,1.219-10.137.451-20.324-.518-4.259-.7-7.532-.718-7.9l1.67-.134c.234,2.171.534,5.093.768,8.35,1,7.932,2.989,17.7,6.379,19.89.718.451,1.052.267,1.169.184,2.338-1.353,2.806-12.725,2.4-20.357h1.67c.167,3.24.835,19.522-3.24,21.894a2.639,2.639,0,0,1-2.906-.234c-2.188-1.42-3.791-5.127-5.01-9.452,0,5.01-.534,8.968-1.954,9.736a1.67,1.67,0,0,1-2-.351,15.815,15.815,0,0,1-3.657-6c.568,4.759.651,8.684-.384,9.753A1.487,1.487,0,0,1,560.569,189.37Z" transform="translate(154.217 33.263)" fill="#ca6e70"/>
        <path id="Path_94" data-name="Path 94" d="M540,175.468s23.029-18.854,26.937-13.193-21.159,27.856-21.159,27.856" transform="translate(151.121 36.945)" fill="#e5b5b7"/>
        <path id="Path_95" data-name="Path 95" d="M546.574,191.067l-1.119-1.236c17.852-15.832,22.378-24.816,21.042-26.72a1.67,1.67,0,0,0-1.2-.668c-5.16-.735-19.456,9.886-24.532,14.045L539.71,175.2c.768-.635,18.921-15.414,25.8-14.412a3.34,3.34,0,0,1,2.355,1.369C571.924,168.071,550.849,187.276,546.574,191.067Z" transform="translate(150.927 36.627)" fill="#ca6e70"/>
        <path id="Path_96" data-name="Path 96" d="M515.989,249.97l-1.436-.835c2.939-5.01,3.924-8.584,3.023-10.872s-4.208-3.457-7.649-4.492c-3.039-.919-6.162-1.854-8.35-3.925-3.34-3.223-2.488-7.7-1.67-12.024.868-5.01,1.67-9.686-2.538-13.36-8.1-7.064-33.4.818-33.717.9l-.5-1.67c1.069-.334,26.5-8.233,35.32-.551,5.01,4.309,3.958,9.936,3.089,14.913-.752,4.258-1.4,7.932,1.253,10.538a18.37,18.37,0,0,0,7.565,3.524c3.674,1.1,7.465,2.238,8.734,5.478C520.247,240.484,519.262,244.409,515.989,249.97Z" transform="translate(99.632 62.794)" fill="#34253d"/>
        <path id="Path_97" data-name="Path 97" d="M425.477,262.8a2.706,2.706,0,0,1,0-2.538c1.069-1.837,4.509-2.254,8.517-2.722s8.467-1,9.736-3.006c.768-1.236-.919-3.958-2.872-7.1-4.492-7.231-11.272-18.153-1.4-30.394,14.4-17.852,38.41-12.208,38.711-12.141l-.4,1.67c-.217,0-23.3-5.444-37.007,11.573-9.118,11.323-2.973,21.226,1.52,28.39,2.438,3.924,4.192,6.764,2.856,8.868-1.67,2.689-6.4,3.24-10.955,3.774-3.089.367-6.68.785-7.265,1.9a1.152,1.152,0,0,0,0,1.052Z" transform="translate(74.179 65.612)" fill="#34253d"/>
        <path id="Path_98" data-name="Path 98" d="M422.44,274.444l-1.5-.735c4.509-9.3,3.173-12.926,1.319-17.953s-4.075-10.972-1.386-24.215c8.116-40.08,53.44-31.463,53.958-31.363l-.334,1.67a62.458,62.458,0,0,0-23.163.468c-15.865,3.524-25.568,13.477-28.824,29.592-2.588,12.775-.518,18.37,1.3,23.38C425.747,260.383,427.267,264.491,422.44,274.444Z" transform="translate(70.469 62.485)" fill="#34253d"/>
        <path id="Path_99" data-name="Path 99" d="M525.987,229.146a23.8,23.8,0,0,1-10.788-3.14c-1.9-1.152-2.455-3.574-3.14-6.68-1.269-5.678-3.206-14.245-15.7-21.476-18.37-10.655-33.7,4.342-34.335,5.01l-1.186-1.169c.167-.167,16.834-16.55,36.356-5.26,13.126,7.6,15.147,16.6,16.5,22.562.618,2.789,1.069,4.793,2.371,5.595a22.394,22.394,0,0,0,10.02,2.889Z" transform="translate(98.084 57.883)" fill="#34253d"/>
        <path id="Path_100" data-name="Path 100" d="M454.89,433.66s11.055,10.287,12.542,16.433" transform="translate(94.098 219.483)" fill="#e5b5b7"/>
        <path id="Path_101" data-name="Path 101" d="M466.841,450.541c-1.4-5.845-12.191-15.932-12.291-16.032l1.136-1.219c.451.434,11.256,10.538,12.792,16.867Z" transform="translate(93.87 219.235)" fill="#ca6e70"/>
        <path id="Path_102" data-name="Path 102" d="M448.73,436s12.642,10.287,14.779,16.049" transform="translate(89.971 221.05)" fill="#e5b5b7"/>
        <path id="Path_103" data-name="Path 103" d="M462.932,452.584c-2.021-5.494-14.4-15.581-14.512-15.681l1.052-1.3c.518.434,12.842,10.488,15.03,16.416Z" transform="translate(89.763 220.782)" fill="#ca6e70"/>
        <path id="Path_104" data-name="Path 104" d="M569.18,280.57s22.829,5.728,43.721,30.778c0,0-9,12.191-15.765,17.335C597.136,328.649,577.781,285.73,569.18,280.57Z" transform="translate(170.672 116.913)" fill="#c05c5d" opacity="0.38"/>
        <path id="Path_105" data-name="Path 105" d="M548.177,376.4c-9.853-53.44-26.72-70.641-26.937-70.808l1.169-1.186c.718.7,17.451,17.785,27.4,71.693Z" transform="translate(138.552 132.885)" fill="#cb986f"/>
        <path id="Path_106" data-name="Path 106" d="M495.03,362.028c-42.117,0-61.439-48.731-61.64-49.232l1.57-.6c.184.5,20.307,51.252,64.078,48.012,11.54-.852,20.173-5.144,25.668-12.725,11.69-16.149,5.478-42.184,5.411-42.451l1.67-.4c.267,1.1,6.5,27.037-5.661,43.821-5.812,8.016-14.863,12.525-26.9,13.36A27.768,27.768,0,0,1,495.03,362.028Z" transform="translate(79.693 133.033)" fill="#34253d"/>
        <path id="Path_107" data-name="Path 107" d="M339.152,387s-8.935,53.891,60.12,57.7c0,0-5.595-13.51,0-24.532C399.271,420.216,346.216,391.375,339.152,387Z" transform="translate(16.3 188.221)" fill="#c05c5d" opacity="0.38"/>
        <path id="Path_108" data-name="Path 108" d="M412.444,481.324s-74.749-32.465-78.924-47.962c-5.845-21.71,83.116-130.644,158.449-131.212,0,0-17.936,64.913-9.2,92.4C486.108,405.055,452.841,433.829,412.444,481.324Z" transform="translate(12.597 131.371)" fill="#e7b780"/>
        <path id="Path_109" data-name="Path 109" d="M396.09,434.248c-6.079-85.17,16.934-117.3,17.168-117.618l1.336,1c-.234.3-22.879,32.064-16.834,116.5Z" transform="translate(54.017 141.073)" fill="#cb986f"/>
        <path id="Path_110" data-name="Path 110" d="M281.143,361.43s-3.19,10.721-4.392,11.122-5.561,2.388-5.561,2.388l7.431,4.375,4.108,10.3s2.5-10.955,3.641-12.024c1.854-1.77,7.331-3.707,7.331-3.707s-8.083-1.5-9.268-3.223S281.143,361.43,281.143,361.43Z" transform="translate(-28.981 171.089)" fill="#fff"/>
        <path id="Path_111" data-name="Path 111" d="M146.227,362.23s-3.19,10.721-4.375,11.122-5.561,2.388-5.561,2.388l7.432,4.375,4.091,10.3s2.522-10.938,3.657-12.024c1.854-1.77,7.331-3.707,7.331-3.707s-8.083-1.486-9.285-3.223A58.049,58.049,0,0,1,146.227,362.23Z" transform="translate(-119.364 171.625)" fill="#fff"/>
      </g>
    </g>
  </g>
</svg>
