<svg id="tel" xmlns="http://www.w3.org/2000/svg" width="29.789" height="29.789" viewBox="0 0 29.789 29.789">
                            <path id="Icon_awesome-phone-alt" data-name="Icon awesome-phone-alt" d="M28.939,21.05l-6.516-2.793a1.4,1.4,0,0,0-1.629.4l-2.886,3.526A21.566,21.566,0,0,1,7.6,11.876L11.124,8.99a1.393,1.393,0,0,0,.4-1.629L8.733.844a1.406,1.406,0,0,0-1.6-.809l-6.051,1.4A1.4,1.4,0,0,0,0,2.793a26.993,26.993,0,0,0,27,27,1.4,1.4,0,0,0,1.361-1.082l1.4-6.051a1.413,1.413,0,0,0-.815-1.606Z" transform="translate(0 0)" fill="#969697"/>
                        </svg>
